<svg width="200" height="62" viewBox="0 0 200 62" fill="none" xmlns="http://www.w3.org/2000/svg">
<path d="M1 30C1 13.9837 13.9837 1 30 1H170C186.016 1 199 13.9837 199 30V32C199 48.0163 186.016 61 170 61H30C13.9837 61 1 48.0163 1 32V30Z" stroke="#E8E8E8" stroke-width="2"/>
<path d="M45.332 31.0122H42.6294L42.6147 29.877H45.0684C45.4736 29.877 45.8276 29.8086 46.1304 29.6719C46.4331 29.5352 46.6675 29.3398 46.8335 29.0859C47.0044 28.8271 47.0898 28.5195 47.0898 28.1631C47.0898 27.7725 47.0142 27.4551 46.8628 27.2109C46.7163 26.9619 46.4893 26.7812 46.1816 26.6689C45.8789 26.5518 45.4932 26.4932 45.0244 26.4932H42.9443V36H41.5308V25.3359H45.0244C45.5713 25.3359 46.0596 25.3921 46.4893 25.5044C46.9189 25.6118 47.2827 25.7827 47.5806 26.0171C47.8833 26.2466 48.1128 26.5396 48.269 26.896C48.4253 27.2524 48.5034 27.6797 48.5034 28.1777C48.5034 28.6172 48.3911 29.0151 48.1665 29.3716C47.9419 29.7231 47.6294 30.0112 47.229 30.2358C46.8335 30.4604 46.3696 30.6045 45.8374 30.668L45.332 31.0122ZM45.2661 36H42.0728L42.8711 34.8501H45.2661C45.7153 34.8501 46.0962 34.772 46.4087 34.6157C46.7261 34.4595 46.9678 34.2397 47.1338 33.9565C47.2998 33.6685 47.3828 33.3291 47.3828 32.9385C47.3828 32.543 47.312 32.2012 47.1704 31.9131C47.0288 31.625 46.8066 31.4028 46.5039 31.2466C46.2012 31.0903 45.8105 31.0122 45.332 31.0122H43.3179L43.3325 29.877H46.0864L46.3867 30.2871C46.8994 30.3311 47.334 30.4775 47.6904 30.7266C48.0469 30.9707 48.3179 31.2832 48.5034 31.6641C48.6938 32.0449 48.7891 32.4648 48.7891 32.9238C48.7891 33.5879 48.6426 34.1494 48.3496 34.6084C48.0615 35.0625 47.6538 35.4092 47.1265 35.6484C46.5991 35.8828 45.979 36 45.2661 36ZM55.3442 34.645V30.5654C55.3442 30.2529 55.2808 29.9819 55.1538 29.7524C55.0317 29.5181 54.8462 29.3374 54.5972 29.2104C54.3481 29.0835 54.0405 29.02 53.6743 29.02C53.3325 29.02 53.0322 29.0786 52.7734 29.1958C52.5195 29.313 52.3193 29.4668 52.1729 29.6572C52.0312 29.8477 51.9604 30.0527 51.9604 30.2725H50.6055C50.6055 29.9893 50.6787 29.7085 50.8252 29.4302C50.9717 29.1519 51.1816 28.9004 51.4551 28.6758C51.7334 28.4463 52.0654 28.2656 52.4512 28.1338C52.8418 27.9971 53.2764 27.9287 53.7549 27.9287C54.3311 27.9287 54.8389 28.0264 55.2783 28.2217C55.7227 28.417 56.0693 28.7124 56.3184 29.1079C56.5723 29.4985 56.6992 29.9893 56.6992 30.5801V34.2715C56.6992 34.5352 56.7212 34.8159 56.7651 35.1138C56.814 35.4116 56.8848 35.668 56.9775 35.8828V36H55.564C55.4956 35.8438 55.4419 35.6362 55.4028 35.3774C55.3638 35.1138 55.3442 34.8696 55.3442 34.645ZM55.5786 31.1953L55.5933 32.1475H54.2236C53.8379 32.1475 53.4937 32.1792 53.1909 32.2427C52.8882 32.3013 52.6343 32.3916 52.4292 32.5137C52.2241 32.6357 52.0679 32.7896 51.9604 32.9751C51.853 33.1558 51.7993 33.3682 51.7993 33.6123C51.7993 33.8613 51.8555 34.0884 51.9678 34.2935C52.0801 34.4985 52.2485 34.6621 52.4731 34.7842C52.7026 34.9014 52.9834 34.96 53.3154 34.96C53.7305 34.96 54.0967 34.8721 54.4141 34.6963C54.7314 34.5205 54.9829 34.3057 55.1685 34.0518C55.3589 33.7979 55.4614 33.5513 55.4761 33.312L56.0547 33.9639C56.0205 34.1689 55.9277 34.396 55.7764 34.645C55.625 34.894 55.4224 35.1333 55.1685 35.3628C54.9194 35.5874 54.6216 35.7754 54.2749 35.9268C53.9331 36.0732 53.5474 36.1465 53.1177 36.1465C52.5806 36.1465 52.1094 36.0415 51.7041 35.8315C51.3037 35.6216 50.9912 35.3408 50.7666 34.9893C50.5469 34.6328 50.437 34.2349 50.437 33.7954C50.437 33.3706 50.52 32.9971 50.686 32.6748C50.8521 32.3477 51.0913 32.0767 51.4038 31.8618C51.7163 31.6421 52.0923 31.4761 52.5317 31.3638C52.9712 31.2515 53.4619 31.1953 54.0039 31.1953H55.5786ZM62.002 35.0332C62.3242 35.0332 62.6221 34.9673 62.8955 34.8354C63.1689 34.7036 63.3936 34.5229 63.5693 34.2935C63.7451 34.0591 63.8452 33.793 63.8696 33.4951H65.1587C65.1343 33.9639 64.9756 34.4009 64.6826 34.8062C64.3945 35.2065 64.0161 35.5312 63.5474 35.7803C63.0786 36.0244 62.5635 36.1465 62.002 36.1465C61.4062 36.1465 60.8862 36.0415 60.4419 35.8315C60.0024 35.6216 59.6362 35.3335 59.3433 34.9673C59.0552 34.6011 58.8379 34.1812 58.6914 33.7075C58.5498 33.229 58.479 32.7236 58.479 32.1914V31.8838C58.479 31.3516 58.5498 30.8486 58.6914 30.375C58.8379 29.8965 59.0552 29.4741 59.3433 29.1079C59.6362 28.7417 60.0024 28.4536 60.4419 28.2437C60.8862 28.0337 61.4062 27.9287 62.002 27.9287C62.6221 27.9287 63.1641 28.0557 63.6279 28.3096C64.0918 28.5586 64.4556 28.9004 64.7192 29.335C64.9878 29.7646 65.1343 30.2529 65.1587 30.7998H63.8696C63.8452 30.4727 63.7524 30.1772 63.5913 29.9136C63.4351 29.6499 63.2202 29.4399 62.9468 29.2837C62.6782 29.1226 62.3633 29.042 62.002 29.042C61.5869 29.042 61.2378 29.125 60.9546 29.291C60.6763 29.4521 60.4541 29.6719 60.2881 29.9502C60.127 30.2236 60.0098 30.5288 59.9365 30.8657C59.8682 31.1978 59.834 31.5371 59.834 31.8838V32.1914C59.834 32.5381 59.8682 32.8799 59.9365 33.2168C60.0049 33.5537 60.1196 33.8589 60.2808 34.1323C60.4468 34.4058 60.6689 34.6255 60.9473 34.7915C61.2305 34.9526 61.582 35.0332 62.002 35.0332ZM68.0444 24.75V36H66.6821V24.75H68.0444ZM72.8857 28.0752L69.4287 31.7739L67.4951 33.7808L67.3853 32.3379L68.7695 30.6826L71.2305 28.0752H72.8857ZM71.6479 36L68.8208 32.2207L69.5239 31.0122L73.2446 36H71.6479ZM77.4268 36.1465C76.875 36.1465 76.3745 36.0537 75.9253 35.8682C75.481 35.6777 75.0977 35.4116 74.7754 35.0698C74.458 34.728 74.2139 34.3228 74.043 33.854C73.8721 33.3853 73.7866 32.8726 73.7866 32.3159V32.0083C73.7866 31.3638 73.8818 30.79 74.0723 30.2871C74.2627 29.7793 74.5215 29.3496 74.8486 28.998C75.1758 28.6465 75.5469 28.3804 75.9619 28.1997C76.377 28.019 76.8066 27.9287 77.251 27.9287C77.8174 27.9287 78.3057 28.0264 78.7158 28.2217C79.1309 28.417 79.4702 28.6904 79.7339 29.042C79.9976 29.3887 80.1929 29.7988 80.3198 30.2725C80.4468 30.7412 80.5103 31.2539 80.5103 31.8105V32.4185H74.5923V31.3125H79.1553V31.21C79.1357 30.8584 79.0625 30.5166 78.9355 30.1846C78.8135 29.8525 78.6182 29.5791 78.3496 29.3643C78.0811 29.1494 77.7148 29.042 77.251 29.042C76.9434 29.042 76.6602 29.1079 76.4014 29.2397C76.1426 29.3667 75.9204 29.5571 75.7349 29.811C75.5493 30.0649 75.4053 30.375 75.3027 30.7412C75.2002 31.1074 75.1489 31.5298 75.1489 32.0083V32.3159C75.1489 32.6919 75.2002 33.0459 75.3027 33.3779C75.4102 33.7051 75.564 33.9932 75.7642 34.2422C75.9692 34.4912 76.2158 34.6865 76.5039 34.8281C76.7969 34.9697 77.1289 35.0405 77.5 35.0405C77.9785 35.0405 78.3838 34.9429 78.7158 34.7476C79.0479 34.5522 79.3384 34.291 79.5874 33.9639L80.4077 34.6157C80.2368 34.8745 80.0195 35.1211 79.7559 35.3555C79.4922 35.5898 79.1675 35.7803 78.7817 35.9268C78.4009 36.0732 77.9492 36.1465 77.4268 36.1465ZM83.4473 29.7671V36H82.0923V28.0752H83.374L83.4473 29.7671ZM83.125 31.7373L82.561 31.7153C82.5659 31.1733 82.6465 30.6729 82.8027 30.2139C82.959 29.75 83.1787 29.3472 83.4619 29.0054C83.7451 28.6636 84.082 28.3999 84.4727 28.2144C84.8682 28.0239 85.3052 27.9287 85.7837 27.9287C86.1743 27.9287 86.5259 27.9824 86.8384 28.0898C87.1509 28.1924 87.417 28.3584 87.6367 28.5879C87.8613 28.8174 88.0322 29.1152 88.1494 29.4814C88.2666 29.8428 88.3252 30.2847 88.3252 30.8071V36H86.9629V30.7925C86.9629 30.3774 86.9019 30.0454 86.7798 29.7964C86.6577 29.5425 86.4795 29.3594 86.2451 29.2471C86.0107 29.1299 85.7227 29.0713 85.3809 29.0713C85.0439 29.0713 84.7363 29.1421 84.458 29.2837C84.1846 29.4253 83.9478 29.6206 83.7476 29.8696C83.5522 30.1187 83.3984 30.4043 83.2861 30.7266C83.1787 31.0439 83.125 31.3809 83.125 31.7373ZM95.3784 34.4619V24.75H96.7407V36H95.4956L95.3784 34.4619ZM90.0464 32.1255V31.9717C90.0464 31.3662 90.1196 30.8169 90.2661 30.3237C90.4175 29.8257 90.6299 29.3984 90.9033 29.042C91.1816 28.6855 91.5112 28.4121 91.8921 28.2217C92.2778 28.0264 92.7075 27.9287 93.1812 27.9287C93.6792 27.9287 94.1138 28.0166 94.4849 28.1924C94.8608 28.3633 95.1782 28.6147 95.437 28.9468C95.7007 29.2739 95.9082 29.6694 96.0596 30.1333C96.2109 30.5972 96.3159 31.1221 96.3745 31.708V32.3818C96.3208 32.9629 96.2158 33.4854 96.0596 33.9492C95.9082 34.4131 95.7007 34.8086 95.437 35.1357C95.1782 35.4629 94.8608 35.7144 94.4849 35.8901C94.1089 36.061 93.6694 36.1465 93.1665 36.1465C92.7026 36.1465 92.2778 36.0464 91.8921 35.8462C91.5112 35.646 91.1816 35.3652 90.9033 35.0039C90.6299 34.6426 90.4175 34.2178 90.2661 33.7295C90.1196 33.2363 90.0464 32.7017 90.0464 32.1255ZM91.4087 31.9717V32.1255C91.4087 32.521 91.4478 32.8921 91.5259 33.2388C91.6089 33.5854 91.7358 33.8906 91.9067 34.1543C92.0776 34.418 92.2949 34.6255 92.5586 34.7769C92.8223 34.9233 93.1372 34.9966 93.5034 34.9966C93.9526 34.9966 94.3213 34.9014 94.6094 34.7109C94.9023 34.5205 95.1367 34.269 95.3125 33.9565C95.4883 33.644 95.625 33.3047 95.7227 32.9385V31.1733C95.6641 30.9048 95.5786 30.646 95.4663 30.397C95.3589 30.1431 95.2173 29.9185 95.0415 29.7231C94.8706 29.5229 94.6582 29.3643 94.4043 29.2471C94.1553 29.1299 93.8599 29.0713 93.5181 29.0713C93.147 29.0713 92.8271 29.1494 92.5586 29.3057C92.2949 29.457 92.0776 29.667 91.9067 29.9355C91.7358 30.1992 91.6089 30.5068 91.5259 30.8584C91.4478 31.2051 91.4087 31.5762 91.4087 31.9717ZM109.551 34.8501V36H103.904V34.8501H109.551ZM104.189 25.3359V36H102.776V25.3359H104.189ZM108.804 29.9209V31.0708H103.904V29.9209H108.804ZM109.478 25.3359V26.4932H103.904V25.3359H109.478ZM112.451 29.7671V36H111.096V28.0752H112.378L112.451 29.7671ZM112.129 31.7373L111.565 31.7153C111.57 31.1733 111.65 30.6729 111.807 30.2139C111.963 29.75 112.183 29.3472 112.466 29.0054C112.749 28.6636 113.086 28.3999 113.477 28.2144C113.872 28.0239 114.309 27.9287 114.788 27.9287C115.178 27.9287 115.53 27.9824 115.842 28.0898C116.155 28.1924 116.421 28.3584 116.641 28.5879C116.865 28.8174 117.036 29.1152 117.153 29.4814C117.271 29.8428 117.329 30.2847 117.329 30.8071V36H115.967V30.7925C115.967 30.3774 115.906 30.0454 115.784 29.7964C115.662 29.5425 115.483 29.3594 115.249 29.2471C115.015 29.1299 114.727 29.0713 114.385 29.0713C114.048 29.0713 113.74 29.1421 113.462 29.2837C113.188 29.4253 112.952 29.6206 112.751 29.8696C112.556 30.1187 112.402 30.4043 112.29 30.7266C112.183 31.0439 112.129 31.3809 112.129 31.7373ZM124.521 28.0752H125.752V35.8315C125.752 36.5298 125.61 37.1255 125.327 37.6187C125.044 38.1118 124.648 38.4854 124.141 38.7393C123.638 38.998 123.057 39.1274 122.397 39.1274C122.124 39.1274 121.802 39.0835 121.431 38.9956C121.064 38.9126 120.703 38.7686 120.347 38.5635C119.995 38.3633 119.7 38.0923 119.46 37.7505L120.171 36.9448C120.503 37.3452 120.85 37.6235 121.211 37.7798C121.577 37.936 121.938 38.0142 122.295 38.0142C122.725 38.0142 123.096 37.9336 123.408 37.7725C123.721 37.6113 123.962 37.3721 124.133 37.0547C124.309 36.7422 124.397 36.3564 124.397 35.8975V29.8184L124.521 28.0752ZM119.065 32.1255V31.9717C119.065 31.3662 119.136 30.8169 119.277 30.3237C119.424 29.8257 119.631 29.3984 119.9 29.042C120.173 28.6855 120.503 28.4121 120.889 28.2217C121.274 28.0264 121.709 27.9287 122.192 27.9287C122.69 27.9287 123.125 28.0166 123.496 28.1924C123.872 28.3633 124.189 28.6147 124.448 28.9468C124.712 29.2739 124.919 29.6694 125.071 30.1333C125.222 30.5972 125.327 31.1221 125.386 31.708V32.3818C125.332 32.9629 125.227 33.4854 125.071 33.9492C124.919 34.4131 124.712 34.8086 124.448 35.1357C124.189 35.4629 123.872 35.7144 123.496 35.8901C123.12 36.061 122.681 36.1465 122.178 36.1465C121.704 36.1465 121.274 36.0464 120.889 35.8462C120.508 35.646 120.181 35.3652 119.907 35.0039C119.634 34.6426 119.424 34.2178 119.277 33.7295C119.136 33.2363 119.065 32.7017 119.065 32.1255ZM120.42 31.9717V32.1255C120.42 32.521 120.459 32.8921 120.537 33.2388C120.62 33.5854 120.745 33.8906 120.911 34.1543C121.082 34.418 121.299 34.6255 121.562 34.7769C121.826 34.9233 122.141 34.9966 122.507 34.9966C122.957 34.9966 123.328 34.9014 123.621 34.7109C123.914 34.5205 124.146 34.269 124.316 33.9565C124.492 33.644 124.629 33.3047 124.727 32.9385V31.1733C124.673 30.9048 124.59 30.646 124.478 30.397C124.37 30.1431 124.229 29.9185 124.053 29.7231C123.882 29.5229 123.669 29.3643 123.416 29.2471C123.162 29.1299 122.864 29.0713 122.522 29.0713C122.151 29.0713 121.831 29.1494 121.562 29.3057C121.299 29.457 121.082 29.667 120.911 29.9355C120.745 30.1992 120.62 30.5068 120.537 30.8584C120.459 31.2051 120.42 31.5762 120.42 31.9717ZM129.282 28.0752V36H127.92V28.0752H129.282ZM127.817 25.9731C127.817 25.7534 127.883 25.5679 128.015 25.4165C128.152 25.2651 128.352 25.1895 128.616 25.1895C128.875 25.1895 129.072 25.2651 129.209 25.4165C129.351 25.5679 129.421 25.7534 129.421 25.9731C129.421 26.1831 129.351 26.3638 129.209 26.5151C129.072 26.6616 128.875 26.7349 128.616 26.7349C128.352 26.7349 128.152 26.6616 128.015 26.5151C127.883 26.3638 127.817 26.1831 127.817 25.9731ZM132.812 29.7671V36H131.458V28.0752H132.739L132.812 29.7671ZM132.49 31.7373L131.926 31.7153C131.931 31.1733 132.012 30.6729 132.168 30.2139C132.324 29.75 132.544 29.3472 132.827 29.0054C133.11 28.6636 133.447 28.3999 133.838 28.2144C134.233 28.0239 134.67 27.9287 135.149 27.9287C135.54 27.9287 135.891 27.9824 136.204 28.0898C136.516 28.1924 136.782 28.3584 137.002 28.5879C137.227 28.8174 137.397 29.1152 137.515 29.4814C137.632 29.8428 137.69 30.2847 137.69 30.8071V36H136.328V30.7925C136.328 30.3774 136.267 30.0454 136.145 29.7964C136.023 29.5425 135.845 29.3594 135.61 29.2471C135.376 29.1299 135.088 29.0713 134.746 29.0713C134.409 29.0713 134.102 29.1421 133.823 29.2837C133.55 29.4253 133.313 29.6206 133.113 29.8696C132.917 30.1187 132.764 30.4043 132.651 30.7266C132.544 31.0439 132.49 31.3809 132.49 31.7373ZM143.037 36.1465C142.485 36.1465 141.985 36.0537 141.536 35.8682C141.091 35.6777 140.708 35.4116 140.386 35.0698C140.068 34.728 139.824 34.3228 139.653 33.854C139.482 33.3853 139.397 32.8726 139.397 32.3159V32.0083C139.397 31.3638 139.492 30.79 139.683 30.2871C139.873 29.7793 140.132 29.3496 140.459 28.998C140.786 28.6465 141.157 28.3804 141.572 28.1997C141.987 28.019 142.417 27.9287 142.861 27.9287C143.428 27.9287 143.916 28.0264 144.326 28.2217C144.741 28.417 145.081 28.6904 145.344 29.042C145.608 29.3887 145.803 29.7988 145.93 30.2725C146.057 30.7412 146.121 31.2539 146.121 31.8105V32.4185H140.203V31.3125H144.766V31.21C144.746 30.8584 144.673 30.5166 144.546 30.1846C144.424 29.8525 144.229 29.5791 143.96 29.3643C143.691 29.1494 143.325 29.042 142.861 29.042C142.554 29.042 142.271 29.1079 142.012 29.2397C141.753 29.3667 141.531 29.5571 141.345 29.811C141.16 30.0649 141.016 30.375 140.913 30.7412C140.811 31.1074 140.759 31.5298 140.759 32.0083V32.3159C140.759 32.6919 140.811 33.0459 140.913 33.3779C141.021 33.7051 141.174 33.9932 141.375 34.2422C141.58 34.4912 141.826 34.6865 142.114 34.8281C142.407 34.9697 142.739 35.0405 143.11 35.0405C143.589 35.0405 143.994 34.9429 144.326 34.7476C144.658 34.5522 144.949 34.291 145.198 33.9639L146.018 34.6157C145.847 34.8745 145.63 35.1211 145.366 35.3555C145.103 35.5898 144.778 35.7803 144.392 35.9268C144.011 36.0732 143.56 36.1465 143.037 36.1465ZM150.991 36.1465C150.439 36.1465 149.939 36.0537 149.49 35.8682C149.045 35.6777 148.662 35.4116 148.34 35.0698C148.022 34.728 147.778 34.3228 147.607 33.854C147.437 33.3853 147.351 32.8726 147.351 32.3159V32.0083C147.351 31.3638 147.446 30.79 147.637 30.2871C147.827 29.7793 148.086 29.3496 148.413 28.998C148.74 28.6465 149.111 28.3804 149.526 28.1997C149.941 28.019 150.371 27.9287 150.815 27.9287C151.382 27.9287 151.87 28.0264 152.28 28.2217C152.695 28.417 153.035 28.6904 153.298 29.042C153.562 29.3887 153.757 29.7988 153.884 30.2725C154.011 30.7412 154.075 31.2539 154.075 31.8105V32.4185H148.157V31.3125H152.72V31.21C152.7 30.8584 152.627 30.5166 152.5 30.1846C152.378 29.8525 152.183 29.5791 151.914 29.3643C151.646 29.1494 151.279 29.042 150.815 29.042C150.508 29.042 150.225 29.1079 149.966 29.2397C149.707 29.3667 149.485 29.5571 149.299 29.811C149.114 30.0649 148.97 30.375 148.867 30.7412C148.765 31.1074 148.713 31.5298 148.713 32.0083V32.3159C148.713 32.6919 148.765 33.0459 148.867 33.3779C148.975 33.7051 149.128 33.9932 149.329 34.2422C149.534 34.4912 149.78 34.6865 150.068 34.8281C150.361 34.9697 150.693 35.0405 151.064 35.0405C151.543 35.0405 151.948 34.9429 152.28 34.7476C152.612 34.5522 152.903 34.291 153.152 33.9639L153.972 34.6157C153.801 34.8745 153.584 35.1211 153.32 35.3555C153.057 35.5898 152.732 35.7803 152.346 35.9268C151.965 36.0732 151.514 36.1465 150.991 36.1465ZM157.012 29.3203V36H155.657V28.0752H156.975L157.012 29.3203ZM159.487 28.0312L159.48 29.291C159.368 29.2666 159.26 29.252 159.158 29.2471C159.06 29.2373 158.948 29.2324 158.821 29.2324C158.508 29.2324 158.232 29.2812 157.993 29.3789C157.754 29.4766 157.551 29.6133 157.385 29.7891C157.219 29.9648 157.087 30.1748 156.99 30.4189C156.897 30.6582 156.836 30.9219 156.807 31.21L156.426 31.4297C156.426 30.9512 156.472 30.502 156.565 30.082C156.663 29.6621 156.812 29.291 157.012 28.9688C157.212 28.6416 157.466 28.3877 157.773 28.207C158.086 28.0215 158.457 27.9287 158.887 27.9287C158.984 27.9287 159.097 27.9409 159.224 27.9653C159.351 27.9849 159.438 28.0068 159.487 28.0312Z" fill="#0A8BFE"/>
</svg>
