<svg width="200" height="62" viewBox="0 0 200 62" fill="none" xmlns="http://www.w3.org/2000/svg">
<path d="M1 30C1 13.9837 13.9837 1 30 1H170C186.016 1 199 13.9837 199 30V32C199 48.0163 186.016 61 170 61H30C13.9837 61 1 48.0163 1 32V30Z" stroke="#E8E8E8" stroke-width="2"/>
<path d="M48.7324 25.3359V36H47.3188V25.3359H48.7324ZM53.2002 30.1333V31.2905H48.4248V30.1333H53.2002ZM53.9253 25.3359V26.4932H48.4248V25.3359H53.9253ZM56.877 28.0752V36H55.5146V28.0752H56.877ZM55.4121 25.9731C55.4121 25.7534 55.478 25.5679 55.6099 25.4165C55.7466 25.2651 55.9468 25.1895 56.2104 25.1895C56.4692 25.1895 56.667 25.2651 56.8037 25.4165C56.9453 25.5679 57.0161 25.7534 57.0161 25.9731C57.0161 26.1831 56.9453 26.3638 56.8037 26.5151C56.667 26.6616 56.4692 26.7349 56.2104 26.7349C55.9468 26.7349 55.7466 26.6616 55.6099 26.5151C55.478 26.3638 55.4121 26.1831 55.4121 25.9731ZM60.4072 29.7671V36H59.0522V28.0752H60.334L60.4072 29.7671ZM60.085 31.7373L59.521 31.7153C59.5259 31.1733 59.6064 30.6729 59.7627 30.2139C59.9189 29.75 60.1387 29.3472 60.4219 29.0054C60.7051 28.6636 61.042 28.3999 61.4326 28.2144C61.8281 28.0239 62.2651 27.9287 62.7437 27.9287C63.1343 27.9287 63.4858 27.9824 63.7983 28.0898C64.1108 28.1924 64.377 28.3584 64.5967 28.5879C64.8213 28.8174 64.9922 29.1152 65.1094 29.4814C65.2266 29.8428 65.2852 30.2847 65.2852 30.8071V36H63.9229V30.7925C63.9229 30.3774 63.8618 30.0454 63.7397 29.7964C63.6177 29.5425 63.4395 29.3594 63.2051 29.2471C62.9707 29.1299 62.6826 29.0713 62.3408 29.0713C62.0039 29.0713 61.6963 29.1421 61.418 29.2837C61.1445 29.4253 60.9077 29.6206 60.7075 29.8696C60.5122 30.1187 60.3584 30.4043 60.2461 30.7266C60.1387 31.0439 60.085 31.3809 60.085 31.7373ZM72.0161 34.645V30.5654C72.0161 30.2529 71.9526 29.9819 71.8257 29.7524C71.7036 29.5181 71.5181 29.3374 71.269 29.2104C71.02 29.0835 70.7124 29.02 70.3462 29.02C70.0044 29.02 69.7041 29.0786 69.4453 29.1958C69.1914 29.313 68.9912 29.4668 68.8447 29.6572C68.7031 29.8477 68.6323 30.0527 68.6323 30.2725H67.2773C67.2773 29.9893 67.3506 29.7085 67.4971 29.4302C67.6436 29.1519 67.8535 28.9004 68.127 28.6758C68.4053 28.4463 68.7373 28.2656 69.123 28.1338C69.5137 27.9971 69.9482 27.9287 70.4268 27.9287C71.0029 27.9287 71.5107 28.0264 71.9502 28.2217C72.3945 28.417 72.7412 28.7124 72.9902 29.1079C73.2441 29.4985 73.3711 29.9893 73.3711 30.5801V34.2715C73.3711 34.5352 73.3931 34.8159 73.437 35.1138C73.4858 35.4116 73.5566 35.668 73.6494 35.8828V36H72.2358C72.1675 35.8438 72.1138 35.6362 72.0747 35.3774C72.0356 35.1138 72.0161 34.8696 72.0161 34.645ZM72.2505 31.1953L72.2651 32.1475H70.8955C70.5098 32.1475 70.1655 32.1792 69.8628 32.2427C69.5601 32.3013 69.3062 32.3916 69.1011 32.5137C68.896 32.6357 68.7397 32.7896 68.6323 32.9751C68.5249 33.1558 68.4712 33.3682 68.4712 33.6123C68.4712 33.8613 68.5273 34.0884 68.6396 34.2935C68.752 34.4985 68.9204 34.6621 69.145 34.7842C69.3745 34.9014 69.6553 34.96 69.9873 34.96C70.4023 34.96 70.7686 34.8721 71.0859 34.6963C71.4033 34.5205 71.6548 34.3057 71.8403 34.0518C72.0308 33.7979 72.1333 33.5513 72.1479 33.312L72.7266 33.9639C72.6924 34.1689 72.5996 34.396 72.4482 34.645C72.2969 34.894 72.0942 35.1333 71.8403 35.3628C71.5913 35.5874 71.2935 35.7754 70.9468 35.9268C70.605 36.0732 70.2192 36.1465 69.7896 36.1465C69.2524 36.1465 68.7812 36.0415 68.376 35.8315C67.9756 35.6216 67.6631 35.3408 67.4385 34.9893C67.2188 34.6328 67.1089 34.2349 67.1089 33.7954C67.1089 33.3706 67.1919 32.9971 67.3579 32.6748C67.5239 32.3477 67.7632 32.0767 68.0757 31.8618C68.3882 31.6421 68.7642 31.4761 69.2036 31.3638C69.6431 31.2515 70.1338 31.1953 70.6758 31.1953H72.2505ZM76.8574 29.7671V36H75.5024V28.0752H76.7842L76.8574 29.7671ZM76.5352 31.7373L75.9712 31.7153C75.9761 31.1733 76.0566 30.6729 76.2129 30.2139C76.3691 29.75 76.5889 29.3472 76.8721 29.0054C77.1553 28.6636 77.4922 28.3999 77.8828 28.2144C78.2783 28.0239 78.7153 27.9287 79.1938 27.9287C79.5845 27.9287 79.936 27.9824 80.2485 28.0898C80.561 28.1924 80.8271 28.3584 81.0469 28.5879C81.2715 28.8174 81.4424 29.1152 81.5596 29.4814C81.6768 29.8428 81.7354 30.2847 81.7354 30.8071V36H80.373V30.7925C80.373 30.3774 80.312 30.0454 80.1899 29.7964C80.0679 29.5425 79.8896 29.3594 79.6553 29.2471C79.4209 29.1299 79.1328 29.0713 78.791 29.0713C78.4541 29.0713 78.1465 29.1421 77.8682 29.2837C77.5947 29.4253 77.3579 29.6206 77.1577 29.8696C76.9624 30.1187 76.8086 30.4043 76.6963 30.7266C76.5889 31.0439 76.5352 31.3809 76.5352 31.7373ZM86.9648 35.0332C87.2871 35.0332 87.585 34.9673 87.8584 34.8354C88.1318 34.7036 88.3564 34.5229 88.5322 34.2935C88.708 34.0591 88.8081 33.793 88.8325 33.4951H90.1216C90.0972 33.9639 89.9385 34.4009 89.6455 34.8062C89.3574 35.2065 88.979 35.5312 88.5103 35.7803C88.0415 36.0244 87.5264 36.1465 86.9648 36.1465C86.3691 36.1465 85.8491 36.0415 85.4048 35.8315C84.9653 35.6216 84.5991 35.3335 84.3062 34.9673C84.0181 34.6011 83.8008 34.1812 83.6543 33.7075C83.5127 33.229 83.4419 32.7236 83.4419 32.1914V31.8838C83.4419 31.3516 83.5127 30.8486 83.6543 30.375C83.8008 29.8965 84.0181 29.4741 84.3062 29.1079C84.5991 28.7417 84.9653 28.4536 85.4048 28.2437C85.8491 28.0337 86.3691 27.9287 86.9648 27.9287C87.585 27.9287 88.127 28.0557 88.5908 28.3096C89.0547 28.5586 89.4185 28.9004 89.6821 29.335C89.9507 29.7646 90.0972 30.2529 90.1216 30.7998H88.8325C88.8081 30.4727 88.7153 30.1772 88.5542 29.9136C88.3979 29.6499 88.1831 29.4399 87.9097 29.2837C87.6411 29.1226 87.3262 29.042 86.9648 29.042C86.5498 29.042 86.2007 29.125 85.9175 29.291C85.6392 29.4521 85.417 29.6719 85.251 29.9502C85.0898 30.2236 84.9727 30.5288 84.8994 30.8657C84.8311 31.1978 84.7969 31.5371 84.7969 31.8838V32.1914C84.7969 32.5381 84.8311 32.8799 84.8994 33.2168C84.9678 33.5537 85.0825 33.8589 85.2437 34.1323C85.4097 34.4058 85.6318 34.6255 85.9102 34.7915C86.1934 34.9526 86.5449 35.0332 86.9648 35.0332ZM94.9336 36.1465C94.3818 36.1465 93.8813 36.0537 93.4321 35.8682C92.9878 35.6777 92.6045 35.4116 92.2822 35.0698C91.9648 34.728 91.7207 34.3228 91.5498 33.854C91.3789 33.3853 91.2935 32.8726 91.2935 32.3159V32.0083C91.2935 31.3638 91.3887 30.79 91.5791 30.2871C91.7695 29.7793 92.0283 29.3496 92.3555 28.998C92.6826 28.6465 93.0537 28.3804 93.4688 28.1997C93.8838 28.019 94.3135 27.9287 94.7578 27.9287C95.3242 27.9287 95.8125 28.0264 96.2227 28.2217C96.6377 28.417 96.9771 28.6904 97.2407 29.042C97.5044 29.3887 97.6997 29.7988 97.8267 30.2725C97.9536 30.7412 98.0171 31.2539 98.0171 31.8105V32.4185H92.0991V31.3125H96.6621V31.21C96.6426 30.8584 96.5693 30.5166 96.4424 30.1846C96.3203 29.8525 96.125 29.5791 95.8564 29.3643C95.5879 29.1494 95.2217 29.042 94.7578 29.042C94.4502 29.042 94.167 29.1079 93.9082 29.2397C93.6494 29.3667 93.4272 29.5571 93.2417 29.811C93.0562 30.0649 92.9121 30.375 92.8096 30.7412C92.707 31.1074 92.6558 31.5298 92.6558 32.0083V32.3159C92.6558 32.6919 92.707 33.0459 92.8096 33.3779C92.917 33.7051 93.0708 33.9932 93.271 34.2422C93.4761 34.4912 93.7227 34.6865 94.0107 34.8281C94.3037 34.9697 94.6357 35.0405 95.0068 35.0405C95.4854 35.0405 95.8906 34.9429 96.2227 34.7476C96.5547 34.5522 96.8452 34.291 97.0942 33.9639L97.9146 34.6157C97.7437 34.8745 97.5264 35.1211 97.2627 35.3555C96.999 35.5898 96.6743 35.7803 96.2886 35.9268C95.9077 36.0732 95.4561 36.1465 94.9336 36.1465ZM106.411 36H104.184L104.199 34.8501H106.411C107.172 34.8501 107.807 34.6914 108.315 34.374C108.823 34.0518 109.204 33.6025 109.458 33.0264C109.716 32.4453 109.846 31.7666 109.846 30.9902V30.3384C109.846 29.728 109.772 29.186 109.626 28.7124C109.479 28.2339 109.265 27.8311 108.981 27.5039C108.698 27.1719 108.352 26.9204 107.941 26.7495C107.536 26.5786 107.07 26.4932 106.542 26.4932H104.14V25.3359H106.542C107.241 25.3359 107.878 25.4531 108.454 25.6875C109.03 25.917 109.526 26.2515 109.941 26.6909C110.361 27.1255 110.683 27.6528 110.908 28.2729C111.132 28.8882 111.245 29.5815 111.245 30.353V30.9902C111.245 31.7617 111.132 32.4575 110.908 33.0776C110.683 33.6929 110.358 34.2178 109.934 34.6523C109.514 35.0869 109.006 35.4214 108.41 35.6558C107.819 35.8853 107.153 36 106.411 36ZM104.938 25.3359V36H103.525V25.3359H104.938ZM114.636 28.0752V36H113.273V28.0752H114.636ZM113.171 25.9731C113.171 25.7534 113.237 25.5679 113.369 25.4165C113.505 25.2651 113.706 25.1895 113.969 25.1895C114.228 25.1895 114.426 25.2651 114.562 25.4165C114.704 25.5679 114.775 25.7534 114.775 25.9731C114.775 26.1831 114.704 26.3638 114.562 26.5151C114.426 26.6616 114.228 26.7349 113.969 26.7349C113.706 26.7349 113.505 26.6616 113.369 26.5151C113.237 26.3638 113.171 26.1831 113.171 25.9731ZM118.166 29.3203V36H116.811V28.0752H118.129L118.166 29.3203ZM120.642 28.0312L120.634 29.291C120.522 29.2666 120.415 29.252 120.312 29.2471C120.214 29.2373 120.102 29.2324 119.975 29.2324C119.663 29.2324 119.387 29.2812 119.147 29.3789C118.908 29.4766 118.706 29.6133 118.54 29.7891C118.374 29.9648 118.242 30.1748 118.144 30.4189C118.051 30.6582 117.99 30.9219 117.961 31.21L117.58 31.4297C117.58 30.9512 117.626 30.502 117.719 30.082C117.817 29.6621 117.966 29.291 118.166 28.9688C118.366 28.6416 118.62 28.3877 118.928 28.207C119.24 28.0215 119.611 27.9287 120.041 27.9287C120.139 27.9287 120.251 27.9409 120.378 27.9653C120.505 27.9849 120.593 28.0068 120.642 28.0312ZM125.036 36.1465C124.484 36.1465 123.984 36.0537 123.535 35.8682C123.09 35.6777 122.707 35.4116 122.385 35.0698C122.067 34.728 121.823 34.3228 121.652 33.854C121.481 33.3853 121.396 32.8726 121.396 32.3159V32.0083C121.396 31.3638 121.491 30.79 121.682 30.2871C121.872 29.7793 122.131 29.3496 122.458 28.998C122.785 28.6465 123.156 28.3804 123.571 28.1997C123.986 28.019 124.416 27.9287 124.86 27.9287C125.427 27.9287 125.915 28.0264 126.325 28.2217C126.74 28.417 127.08 28.6904 127.343 29.042C127.607 29.3887 127.802 29.7988 127.929 30.2725C128.056 30.7412 128.12 31.2539 128.12 31.8105V32.4185H122.202V31.3125H126.765V31.21C126.745 30.8584 126.672 30.5166 126.545 30.1846C126.423 29.8525 126.228 29.5791 125.959 29.3643C125.69 29.1494 125.324 29.042 124.86 29.042C124.553 29.042 124.27 29.1079 124.011 29.2397C123.752 29.3667 123.53 29.5571 123.344 29.811C123.159 30.0649 123.015 30.375 122.912 30.7412C122.81 31.1074 122.758 31.5298 122.758 32.0083V32.3159C122.758 32.6919 122.81 33.0459 122.912 33.3779C123.02 33.7051 123.173 33.9932 123.374 34.2422C123.579 34.4912 123.825 34.6865 124.113 34.8281C124.406 34.9697 124.738 35.0405 125.109 35.0405C125.588 35.0405 125.993 34.9429 126.325 34.7476C126.657 34.5522 126.948 34.291 127.197 33.9639L128.017 34.6157C127.846 34.8745 127.629 35.1211 127.365 35.3555C127.102 35.5898 126.777 35.7803 126.391 35.9268C126.01 36.0732 125.559 36.1465 125.036 36.1465ZM132.873 35.0332C133.195 35.0332 133.493 34.9673 133.767 34.8354C134.04 34.7036 134.265 34.5229 134.44 34.2935C134.616 34.0591 134.716 33.793 134.741 33.4951H136.03C136.005 33.9639 135.847 34.4009 135.554 34.8062C135.266 35.2065 134.887 35.5312 134.418 35.7803C133.95 36.0244 133.435 36.1465 132.873 36.1465C132.277 36.1465 131.757 36.0415 131.313 35.8315C130.874 35.6216 130.507 35.3335 130.214 34.9673C129.926 34.6011 129.709 34.1812 129.562 33.7075C129.421 33.229 129.35 32.7236 129.35 32.1914V31.8838C129.35 31.3516 129.421 30.8486 129.562 30.375C129.709 29.8965 129.926 29.4741 130.214 29.1079C130.507 28.7417 130.874 28.4536 131.313 28.2437C131.757 28.0337 132.277 27.9287 132.873 27.9287C133.493 27.9287 134.035 28.0557 134.499 28.3096C134.963 28.5586 135.327 28.9004 135.59 29.335C135.859 29.7646 136.005 30.2529 136.03 30.7998H134.741C134.716 30.4727 134.624 30.1772 134.462 29.9136C134.306 29.6499 134.091 29.4399 133.818 29.2837C133.549 29.1226 133.234 29.042 132.873 29.042C132.458 29.042 132.109 29.125 131.826 29.291C131.547 29.4521 131.325 29.6719 131.159 29.9502C130.998 30.2236 130.881 30.5288 130.808 30.8657C130.739 31.1978 130.705 31.5371 130.705 31.8838V32.1914C130.705 32.5381 130.739 32.8799 130.808 33.2168C130.876 33.5537 130.991 33.8589 131.152 34.1323C131.318 34.4058 131.54 34.6255 131.818 34.7915C132.102 34.9526 132.453 35.0332 132.873 35.0332ZM140.871 28.0752V29.1152H136.586V28.0752H140.871ZM138.037 26.1489H139.392V34.0371C139.392 34.3057 139.433 34.5083 139.516 34.645C139.599 34.7817 139.707 34.8721 139.838 34.916C139.97 34.96 140.112 34.9819 140.263 34.9819C140.375 34.9819 140.493 34.9722 140.615 34.9526C140.742 34.9282 140.837 34.9087 140.9 34.894L140.908 36C140.8 36.0342 140.659 36.0659 140.483 36.0952C140.312 36.1294 140.104 36.1465 139.86 36.1465C139.528 36.1465 139.223 36.0806 138.945 35.9487C138.667 35.8169 138.444 35.5972 138.278 35.2896C138.117 34.9771 138.037 34.5571 138.037 34.0298V26.1489ZM141.955 32.1255V31.957C141.955 31.3857 142.038 30.856 142.204 30.3677C142.37 29.8745 142.609 29.4473 142.922 29.0859C143.234 28.7197 143.613 28.4365 144.057 28.2363C144.501 28.0312 145 27.9287 145.551 27.9287C146.108 27.9287 146.608 28.0312 147.053 28.2363C147.502 28.4365 147.883 28.7197 148.195 29.0859C148.513 29.4473 148.754 29.8745 148.92 30.3677C149.086 30.856 149.169 31.3857 149.169 31.957V32.1255C149.169 32.6968 149.086 33.2266 148.92 33.7148C148.754 34.2031 148.513 34.6304 148.195 34.9966C147.883 35.3579 147.504 35.6411 147.06 35.8462C146.621 36.0464 146.123 36.1465 145.566 36.1465C145.009 36.1465 144.509 36.0464 144.064 35.8462C143.62 35.6411 143.239 35.3579 142.922 34.9966C142.609 34.6304 142.37 34.2031 142.204 33.7148C142.038 33.2266 141.955 32.6968 141.955 32.1255ZM143.31 31.957V32.1255C143.31 32.521 143.356 32.8945 143.449 33.2461C143.542 33.5928 143.681 33.9004 143.867 34.1689C144.057 34.4375 144.294 34.6499 144.577 34.8062C144.86 34.9575 145.19 35.0332 145.566 35.0332C145.937 35.0332 146.262 34.9575 146.54 34.8062C146.823 34.6499 147.058 34.4375 147.243 34.1689C147.429 33.9004 147.568 33.5928 147.661 33.2461C147.758 32.8945 147.807 32.521 147.807 32.1255V31.957C147.807 31.5664 147.758 31.1978 147.661 30.8511C147.568 30.4995 147.426 30.1895 147.236 29.9209C147.05 29.6475 146.816 29.4326 146.533 29.2764C146.254 29.1201 145.927 29.042 145.551 29.042C145.18 29.042 144.853 29.1201 144.57 29.2764C144.292 29.4326 144.057 29.6475 143.867 29.9209C143.681 30.1895 143.542 30.4995 143.449 30.8511C143.356 31.1978 143.31 31.5664 143.31 31.957ZM152.224 29.3203V36H150.869V28.0752H152.187L152.224 29.3203ZM154.699 28.0312L154.692 29.291C154.58 29.2666 154.472 29.252 154.37 29.2471C154.272 29.2373 154.16 29.2324 154.033 29.2324C153.72 29.2324 153.444 29.2812 153.205 29.3789C152.966 29.4766 152.763 29.6133 152.597 29.7891C152.431 29.9648 152.299 30.1748 152.202 30.4189C152.109 30.6582 152.048 30.9219 152.019 31.21L151.638 31.4297C151.638 30.9512 151.684 30.502 151.777 30.082C151.875 29.6621 152.023 29.291 152.224 28.9688C152.424 28.6416 152.678 28.3877 152.985 28.207C153.298 28.0215 153.669 27.9287 154.099 27.9287C154.196 27.9287 154.309 27.9409 154.436 27.9653C154.562 27.9849 154.65 28.0068 154.699 28.0312Z" fill="#0A8BFE"/>
</svg>
