<svg width="200" height="62" viewBox="0 0 200 62" fill="none" xmlns="http://www.w3.org/2000/svg">
<path d="M1 30C1 13.9837 13.9837 1 30 1H170C186.016 1 199 13.9837 199 30V32C199 48.0163 186.016 61 170 61H30C13.9837 61 1 48.0163 1 32V30Z" stroke="#E8E8E8" stroke-width="2"/>
<path d="M41.9556 25.3359V36H40.542V25.3359H41.9556ZM46.4233 30.1333V31.2905H41.6479V30.1333H46.4233ZM47.1484 25.3359V26.4932H41.6479V25.3359H47.1484ZM49.7925 29.3203V36H48.4375V28.0752H49.7559L49.7925 29.3203ZM52.2681 28.0312L52.2607 29.291C52.1484 29.2666 52.041 29.252 51.9385 29.2471C51.8408 29.2373 51.7285 29.2324 51.6016 29.2324C51.2891 29.2324 51.0132 29.2812 50.7739 29.3789C50.5347 29.4766 50.332 29.6133 50.166 29.7891C50 29.9648 49.8682 30.1748 49.7705 30.4189C49.6777 30.6582 49.6167 30.9219 49.5874 31.21L49.2065 31.4297C49.2065 30.9512 49.2529 30.502 49.3457 30.082C49.4434 29.6621 49.5923 29.291 49.7925 28.9688C49.9927 28.6416 50.2466 28.3877 50.5542 28.207C50.8667 28.0215 51.2378 27.9287 51.6675 27.9287C51.7651 27.9287 51.8774 27.9409 52.0044 27.9653C52.1313 27.9849 52.2192 28.0068 52.2681 28.0312ZM53.0151 32.1255V31.957C53.0151 31.3857 53.0981 30.856 53.2642 30.3677C53.4302 29.8745 53.6694 29.4473 53.9819 29.0859C54.2944 28.7197 54.6729 28.4365 55.1172 28.2363C55.5615 28.0312 56.0596 27.9287 56.6113 27.9287C57.168 27.9287 57.6685 28.0312 58.1128 28.2363C58.562 28.4365 58.9429 28.7197 59.2554 29.0859C59.5728 29.4473 59.8145 29.8745 59.9805 30.3677C60.1465 30.856 60.2295 31.3857 60.2295 31.957V32.1255C60.2295 32.6968 60.1465 33.2266 59.9805 33.7148C59.8145 34.2031 59.5728 34.6304 59.2554 34.9966C58.9429 35.3579 58.5645 35.6411 58.1201 35.8462C57.6807 36.0464 57.1826 36.1465 56.626 36.1465C56.0693 36.1465 55.5688 36.0464 55.1245 35.8462C54.6802 35.6411 54.2993 35.3579 53.9819 34.9966C53.6694 34.6304 53.4302 34.2031 53.2642 33.7148C53.0981 33.2266 53.0151 32.6968 53.0151 32.1255ZM54.3701 31.957V32.1255C54.3701 32.521 54.4165 32.8945 54.5093 33.2461C54.6021 33.5928 54.7412 33.9004 54.9268 34.1689C55.1172 34.4375 55.354 34.6499 55.6372 34.8062C55.9204 34.9575 56.25 35.0332 56.626 35.0332C56.9971 35.0332 57.3218 34.9575 57.6001 34.8062C57.8833 34.6499 58.1177 34.4375 58.3032 34.1689C58.4888 33.9004 58.6279 33.5928 58.7207 33.2461C58.8184 32.8945 58.8672 32.521 58.8672 32.1255V31.957C58.8672 31.5664 58.8184 31.1978 58.7207 30.8511C58.6279 30.4995 58.4863 30.1895 58.2959 29.9209C58.1104 29.6475 57.876 29.4326 57.5928 29.2764C57.3145 29.1201 56.9873 29.042 56.6113 29.042C56.2402 29.042 55.9131 29.1201 55.6299 29.2764C55.3516 29.4326 55.1172 29.6475 54.9268 29.9209C54.7412 30.1895 54.6021 30.4995 54.5093 30.8511C54.4165 31.1978 54.3701 31.5664 54.3701 31.957ZM63.2837 29.7671V36H61.9287V28.0752H63.2104L63.2837 29.7671ZM62.9614 31.7373L62.3975 31.7153C62.4023 31.1733 62.4829 30.6729 62.6392 30.2139C62.7954 29.75 63.0151 29.3472 63.2983 29.0054C63.5815 28.6636 63.9185 28.3999 64.3091 28.2144C64.7046 28.0239 65.1416 27.9287 65.6201 27.9287C66.0107 27.9287 66.3623 27.9824 66.6748 28.0898C66.9873 28.1924 67.2534 28.3584 67.4731 28.5879C67.6978 28.8174 67.8687 29.1152 67.9858 29.4814C68.103 29.8428 68.1616 30.2847 68.1616 30.8071V36H66.7993V30.7925C66.7993 30.3774 66.7383 30.0454 66.6162 29.7964C66.4941 29.5425 66.3159 29.3594 66.0815 29.2471C65.8472 29.1299 65.5591 29.0713 65.2173 29.0713C64.8804 29.0713 64.5728 29.1421 64.2944 29.2837C64.021 29.4253 63.7842 29.6206 63.584 29.8696C63.3887 30.1187 63.2349 30.4043 63.1226 30.7266C63.0151 31.0439 62.9614 31.3809 62.9614 31.7373ZM73.5376 28.0752V29.1152H69.2529V28.0752H73.5376ZM70.7031 26.1489H72.0581V34.0371C72.0581 34.3057 72.0996 34.5083 72.1826 34.645C72.2656 34.7817 72.373 34.8721 72.5049 34.916C72.6367 34.96 72.7783 34.9819 72.9297 34.9819C73.042 34.9819 73.1592 34.9722 73.2812 34.9526C73.4082 34.9282 73.5034 34.9087 73.5669 34.894L73.5742 36C73.4668 36.0342 73.3252 36.0659 73.1494 36.0952C72.9785 36.1294 72.771 36.1465 72.5269 36.1465C72.1948 36.1465 71.8896 36.0806 71.6113 35.9487C71.333 35.8169 71.1108 35.5972 70.9448 35.2896C70.7837 34.9771 70.7031 34.5571 70.7031 34.0298V26.1489ZM78.4155 36.1465C77.8638 36.1465 77.3633 36.0537 76.9141 35.8682C76.4697 35.6777 76.0864 35.4116 75.7642 35.0698C75.4468 34.728 75.2026 34.3228 75.0317 33.854C74.8608 33.3853 74.7754 32.8726 74.7754 32.3159V32.0083C74.7754 31.3638 74.8706 30.79 75.061 30.2871C75.2515 29.7793 75.5103 29.3496 75.8374 28.998C76.1646 28.6465 76.5356 28.3804 76.9507 28.1997C77.3657 28.019 77.7954 27.9287 78.2397 27.9287C78.8062 27.9287 79.2944 28.0264 79.7046 28.2217C80.1196 28.417 80.459 28.6904 80.7227 29.042C80.9863 29.3887 81.1816 29.7988 81.3086 30.2725C81.4355 30.7412 81.499 31.2539 81.499 31.8105V32.4185H75.5811V31.3125H80.144V31.21C80.1245 30.8584 80.0513 30.5166 79.9243 30.1846C79.8022 29.8525 79.6069 29.5791 79.3384 29.3643C79.0698 29.1494 78.7036 29.042 78.2397 29.042C77.9321 29.042 77.6489 29.1079 77.3901 29.2397C77.1313 29.3667 76.9092 29.5571 76.7236 29.811C76.5381 30.0649 76.394 30.375 76.2915 30.7412C76.189 31.1074 76.1377 31.5298 76.1377 32.0083V32.3159C76.1377 32.6919 76.189 33.0459 76.2915 33.3779C76.3989 33.7051 76.5527 33.9932 76.7529 34.2422C76.958 34.4912 77.2046 34.6865 77.4927 34.8281C77.7856 34.9697 78.1177 35.0405 78.4888 35.0405C78.9673 35.0405 79.3726 34.9429 79.7046 34.7476C80.0366 34.5522 80.3271 34.291 80.5762 33.9639L81.3965 34.6157C81.2256 34.8745 81.0083 35.1211 80.7446 35.3555C80.481 35.5898 80.1562 35.7803 79.7705 35.9268C79.3896 36.0732 78.938 36.1465 78.4155 36.1465ZM84.436 29.7671V36H83.0811V28.0752H84.3628L84.436 29.7671ZM84.1138 31.7373L83.5498 31.7153C83.5547 31.1733 83.6353 30.6729 83.7915 30.2139C83.9478 29.75 84.1675 29.3472 84.4507 29.0054C84.7339 28.6636 85.0708 28.3999 85.4614 28.2144C85.8569 28.0239 86.2939 27.9287 86.7725 27.9287C87.1631 27.9287 87.5146 27.9824 87.8271 28.0898C88.1396 28.1924 88.4058 28.3584 88.6255 28.5879C88.8501 28.8174 89.021 29.1152 89.1382 29.4814C89.2554 29.8428 89.314 30.2847 89.314 30.8071V36H87.9517V30.7925C87.9517 30.3774 87.8906 30.0454 87.7686 29.7964C87.6465 29.5425 87.4683 29.3594 87.2339 29.2471C86.9995 29.1299 86.7114 29.0713 86.3696 29.0713C86.0327 29.0713 85.7251 29.1421 85.4468 29.2837C85.1733 29.4253 84.9365 29.6206 84.7363 29.8696C84.541 30.1187 84.3872 30.4043 84.2749 30.7266C84.1675 31.0439 84.1138 31.3809 84.1138 31.7373ZM96.3672 34.4619V24.75H97.7295V36H96.4844L96.3672 34.4619ZM91.0352 32.1255V31.9717C91.0352 31.3662 91.1084 30.8169 91.2549 30.3237C91.4062 29.8257 91.6187 29.3984 91.8921 29.042C92.1704 28.6855 92.5 28.4121 92.8809 28.2217C93.2666 28.0264 93.6963 27.9287 94.1699 27.9287C94.668 27.9287 95.1025 28.0166 95.4736 28.1924C95.8496 28.3633 96.167 28.6147 96.4258 28.9468C96.6895 29.2739 96.897 29.6694 97.0483 30.1333C97.1997 30.5972 97.3047 31.1221 97.3633 31.708V32.3818C97.3096 32.9629 97.2046 33.4854 97.0483 33.9492C96.897 34.4131 96.6895 34.8086 96.4258 35.1357C96.167 35.4629 95.8496 35.7144 95.4736 35.8901C95.0977 36.061 94.6582 36.1465 94.1553 36.1465C93.6914 36.1465 93.2666 36.0464 92.8809 35.8462C92.5 35.646 92.1704 35.3652 91.8921 35.0039C91.6187 34.6426 91.4062 34.2178 91.2549 33.7295C91.1084 33.2363 91.0352 32.7017 91.0352 32.1255ZM92.3975 31.9717V32.1255C92.3975 32.521 92.4365 32.8921 92.5146 33.2388C92.5977 33.5854 92.7246 33.8906 92.8955 34.1543C93.0664 34.418 93.2837 34.6255 93.5474 34.7769C93.811 34.9233 94.126 34.9966 94.4922 34.9966C94.9414 34.9966 95.3101 34.9014 95.5981 34.7109C95.8911 34.5205 96.1255 34.269 96.3013 33.9565C96.4771 33.644 96.6138 33.3047 96.7114 32.9385V31.1733C96.6528 30.9048 96.5674 30.646 96.4551 30.397C96.3477 30.1431 96.2061 29.9185 96.0303 29.7231C95.8594 29.5229 95.647 29.3643 95.3931 29.2471C95.144 29.1299 94.8486 29.0713 94.5068 29.0713C94.1357 29.0713 93.8159 29.1494 93.5474 29.3057C93.2837 29.457 93.0664 29.667 92.8955 29.9355C92.7246 30.1992 92.5977 30.5068 92.5146 30.8584C92.4365 31.2051 92.3975 31.5762 92.3975 31.9717ZM110.54 34.8501V36H104.893V34.8501H110.54ZM105.178 25.3359V36H103.765V25.3359H105.178ZM109.792 29.9209V31.0708H104.893V29.9209H109.792ZM110.466 25.3359V26.4932H104.893V25.3359H110.466ZM113.44 29.7671V36H112.085V28.0752H113.367L113.44 29.7671ZM113.118 31.7373L112.554 31.7153C112.559 31.1733 112.639 30.6729 112.795 30.2139C112.952 29.75 113.171 29.3472 113.455 29.0054C113.738 28.6636 114.075 28.3999 114.465 28.2144C114.861 28.0239 115.298 27.9287 115.776 27.9287C116.167 27.9287 116.519 27.9824 116.831 28.0898C117.144 28.1924 117.41 28.3584 117.629 28.5879C117.854 28.8174 118.025 29.1152 118.142 29.4814C118.259 29.8428 118.318 30.2847 118.318 30.8071V36H116.956V30.7925C116.956 30.3774 116.895 30.0454 116.772 29.7964C116.65 29.5425 116.472 29.3594 116.238 29.2471C116.003 29.1299 115.715 29.0713 115.374 29.0713C115.037 29.0713 114.729 29.1421 114.451 29.2837C114.177 29.4253 113.94 29.6206 113.74 29.8696C113.545 30.1187 113.391 30.4043 113.279 30.7266C113.171 31.0439 113.118 31.3809 113.118 31.7373ZM125.51 28.0752H126.741V35.8315C126.741 36.5298 126.599 37.1255 126.316 37.6187C126.033 38.1118 125.637 38.4854 125.129 38.7393C124.626 38.998 124.045 39.1274 123.386 39.1274C123.113 39.1274 122.791 39.0835 122.419 38.9956C122.053 38.9126 121.692 38.7686 121.335 38.5635C120.984 38.3633 120.688 38.0923 120.449 37.7505L121.16 36.9448C121.492 37.3452 121.838 37.6235 122.2 37.7798C122.566 37.936 122.927 38.0142 123.284 38.0142C123.713 38.0142 124.084 37.9336 124.397 37.7725C124.709 37.6113 124.951 37.3721 125.122 37.0547C125.298 36.7422 125.386 36.3564 125.386 35.8975V29.8184L125.51 28.0752ZM120.054 32.1255V31.9717C120.054 31.3662 120.125 30.8169 120.266 30.3237C120.413 29.8257 120.62 29.3984 120.889 29.042C121.162 28.6855 121.492 28.4121 121.877 28.2217C122.263 28.0264 122.698 27.9287 123.181 27.9287C123.679 27.9287 124.114 28.0166 124.485 28.1924C124.861 28.3633 125.178 28.6147 125.437 28.9468C125.701 29.2739 125.908 29.6694 126.06 30.1333C126.211 30.5972 126.316 31.1221 126.375 31.708V32.3818C126.321 32.9629 126.216 33.4854 126.06 33.9492C125.908 34.4131 125.701 34.8086 125.437 35.1357C125.178 35.4629 124.861 35.7144 124.485 35.8901C124.109 36.061 123.669 36.1465 123.167 36.1465C122.693 36.1465 122.263 36.0464 121.877 35.8462C121.497 35.646 121.169 35.3652 120.896 35.0039C120.623 34.6426 120.413 34.2178 120.266 33.7295C120.125 33.2363 120.054 32.7017 120.054 32.1255ZM121.409 31.9717V32.1255C121.409 32.521 121.448 32.8921 121.526 33.2388C121.609 33.5854 121.733 33.8906 121.899 34.1543C122.07 34.418 122.288 34.6255 122.551 34.7769C122.815 34.9233 123.13 34.9966 123.496 34.9966C123.945 34.9966 124.316 34.9014 124.609 34.7109C124.902 34.5205 125.134 34.269 125.305 33.9565C125.481 33.644 125.618 33.3047 125.715 32.9385V31.1733C125.662 30.9048 125.579 30.646 125.466 30.397C125.359 30.1431 125.217 29.9185 125.042 29.7231C124.871 29.5229 124.658 29.3643 124.404 29.2471C124.15 29.1299 123.853 29.0713 123.511 29.0713C123.14 29.0713 122.82 29.1494 122.551 29.3057C122.288 29.457 122.07 29.667 121.899 29.9355C121.733 30.1992 121.609 30.5068 121.526 30.8584C121.448 31.2051 121.409 31.5762 121.409 31.9717ZM130.271 28.0752V36H128.909V28.0752H130.271ZM128.806 25.9731C128.806 25.7534 128.872 25.5679 129.004 25.4165C129.141 25.2651 129.341 25.1895 129.604 25.1895C129.863 25.1895 130.061 25.2651 130.198 25.4165C130.339 25.5679 130.41 25.7534 130.41 25.9731C130.41 26.1831 130.339 26.3638 130.198 26.5151C130.061 26.6616 129.863 26.7349 129.604 26.7349C129.341 26.7349 129.141 26.6616 129.004 26.5151C128.872 26.3638 128.806 26.1831 128.806 25.9731ZM133.801 29.7671V36H132.446V28.0752H133.728L133.801 29.7671ZM133.479 31.7373L132.915 31.7153C132.92 31.1733 133 30.6729 133.157 30.2139C133.313 29.75 133.533 29.3472 133.816 29.0054C134.099 28.6636 134.436 28.3999 134.827 28.2144C135.222 28.0239 135.659 27.9287 136.138 27.9287C136.528 27.9287 136.88 27.9824 137.192 28.0898C137.505 28.1924 137.771 28.3584 137.991 28.5879C138.215 28.8174 138.386 29.1152 138.503 29.4814C138.621 29.8428 138.679 30.2847 138.679 30.8071V36H137.317V30.7925C137.317 30.3774 137.256 30.0454 137.134 29.7964C137.012 29.5425 136.833 29.3594 136.599 29.2471C136.365 29.1299 136.077 29.0713 135.735 29.0713C135.398 29.0713 135.09 29.1421 134.812 29.2837C134.539 29.4253 134.302 29.6206 134.102 29.8696C133.906 30.1187 133.752 30.4043 133.64 30.7266C133.533 31.0439 133.479 31.3809 133.479 31.7373ZM144.026 36.1465C143.474 36.1465 142.974 36.0537 142.524 35.8682C142.08 35.6777 141.697 35.4116 141.375 35.0698C141.057 34.728 140.813 34.3228 140.642 33.854C140.471 33.3853 140.386 32.8726 140.386 32.3159V32.0083C140.386 31.3638 140.481 30.79 140.671 30.2871C140.862 29.7793 141.121 29.3496 141.448 28.998C141.775 28.6465 142.146 28.3804 142.561 28.1997C142.976 28.019 143.406 27.9287 143.85 27.9287C144.417 27.9287 144.905 28.0264 145.315 28.2217C145.73 28.417 146.069 28.6904 146.333 29.042C146.597 29.3887 146.792 29.7988 146.919 30.2725C147.046 30.7412 147.109 31.2539 147.109 31.8105V32.4185H141.191V31.3125H145.754V31.21C145.735 30.8584 145.662 30.5166 145.535 30.1846C145.413 29.8525 145.217 29.5791 144.949 29.3643C144.68 29.1494 144.314 29.042 143.85 29.042C143.542 29.042 143.259 29.1079 143 29.2397C142.742 29.3667 142.52 29.5571 142.334 29.811C142.148 30.0649 142.004 30.375 141.902 30.7412C141.799 31.1074 141.748 31.5298 141.748 32.0083V32.3159C141.748 32.6919 141.799 33.0459 141.902 33.3779C142.009 33.7051 142.163 33.9932 142.363 34.2422C142.568 34.4912 142.815 34.6865 143.103 34.8281C143.396 34.9697 143.728 35.0405 144.099 35.0405C144.578 35.0405 144.983 34.9429 145.315 34.7476C145.647 34.5522 145.938 34.291 146.187 33.9639L147.007 34.6157C146.836 34.8745 146.619 35.1211 146.355 35.3555C146.091 35.5898 145.767 35.7803 145.381 35.9268C145 36.0732 144.548 36.1465 144.026 36.1465ZM151.98 36.1465C151.428 36.1465 150.928 36.0537 150.479 35.8682C150.034 35.6777 149.651 35.4116 149.329 35.0698C149.011 34.728 148.767 34.3228 148.596 33.854C148.425 33.3853 148.34 32.8726 148.34 32.3159V32.0083C148.34 31.3638 148.435 30.79 148.625 30.2871C148.816 29.7793 149.075 29.3496 149.402 28.998C149.729 28.6465 150.1 28.3804 150.515 28.1997C150.93 28.019 151.36 27.9287 151.804 27.9287C152.371 27.9287 152.859 28.0264 153.269 28.2217C153.684 28.417 154.023 28.6904 154.287 29.042C154.551 29.3887 154.746 29.7988 154.873 30.2725C155 30.7412 155.063 31.2539 155.063 31.8105V32.4185H149.146V31.3125H153.708V31.21C153.689 30.8584 153.616 30.5166 153.489 30.1846C153.367 29.8525 153.171 29.5791 152.903 29.3643C152.634 29.1494 152.268 29.042 151.804 29.042C151.497 29.042 151.213 29.1079 150.955 29.2397C150.696 29.3667 150.474 29.5571 150.288 29.811C150.103 30.0649 149.958 30.375 149.856 30.7412C149.753 31.1074 149.702 31.5298 149.702 32.0083V32.3159C149.702 32.6919 149.753 33.0459 149.856 33.3779C149.963 33.7051 150.117 33.9932 150.317 34.2422C150.522 34.4912 150.769 34.6865 151.057 34.8281C151.35 34.9697 151.682 35.0405 152.053 35.0405C152.532 35.0405 152.937 34.9429 153.269 34.7476C153.601 34.5522 153.892 34.291 154.141 33.9639L154.961 34.6157C154.79 34.8745 154.573 35.1211 154.309 35.3555C154.045 35.5898 153.721 35.7803 153.335 35.9268C152.954 36.0732 152.502 36.1465 151.98 36.1465ZM158 29.3203V36H156.646V28.0752H157.964L158 29.3203ZM160.476 28.0312L160.469 29.291C160.356 29.2666 160.249 29.252 160.146 29.2471C160.049 29.2373 159.937 29.2324 159.81 29.2324C159.497 29.2324 159.221 29.2812 158.982 29.3789C158.743 29.4766 158.54 29.6133 158.374 29.7891C158.208 29.9648 158.076 30.1748 157.979 30.4189C157.886 30.6582 157.825 30.9219 157.795 31.21L157.415 31.4297C157.415 30.9512 157.461 30.502 157.554 30.082C157.651 29.6621 157.8 29.291 158 28.9688C158.201 28.6416 158.455 28.3877 158.762 28.207C159.075 28.0215 159.446 27.9287 159.875 27.9287C159.973 27.9287 160.085 27.9409 160.212 27.9653C160.339 27.9849 160.427 28.0068 160.476 28.0312Z" fill="#0A8BFE"/>
</svg>
