<svg width="122" height="40" viewBox="0 0 122 40" fill="none" xmlns="http://www.w3.org/2000/svg">
<g clip-path="url(#clip0_1_533)">
<path fill-rule="evenodd" clip-rule="evenodd" d="M46.8462 27.1867L53.0606 11.1289H56.3493L62.541 27.1867H59.5245L58.2998 23.898H51.0421L49.84 27.1867H46.8462ZM54.6709 14.032L51.9039 21.5393H57.4379L54.6709 14.032ZM74.7843 21.2217C74.7843 25.1454 72.6524 27.3908 69.6812 27.3908C68.5245 27.3908 67.572 27.0506 66.6421 26.4836V30.7702H63.9431V15.3248H66.007L66.4379 16.4362C67.2998 15.7331 68.3885 15.1207 69.9307 15.1207C72.6977 15.1207 74.7843 17.3434 74.7843 21.2217ZM72.1988 21.2217C72.1988 18.7722 70.9513 17.3207 69.1596 17.3207C68.139 17.3207 67.2771 17.7743 66.6421 18.296V24.3516C67.3452 24.8279 68.1843 25.1908 69.0916 25.1681C70.9287 25.1681 72.1988 23.8073 72.1988 21.2217ZM87.3225 21.2217C87.3225 25.1454 85.1905 27.3908 82.2194 27.3908C81.0627 27.3908 80.1101 27.0506 79.1802 26.4836V30.7702H76.4812V15.3248H78.5452L78.9761 16.4362C79.8379 15.7331 80.9266 15.1207 82.4689 15.1207C85.2359 15.1207 87.3225 17.3434 87.3225 21.2217ZM84.7369 21.2217C84.7369 18.7722 83.4895 17.3207 81.6977 17.3207C80.6771 17.3207 79.8153 17.7743 79.1802 18.296V24.3516C79.8833 24.8279 80.7225 25.1908 81.6297 25.1681C83.4668 25.1681 84.7369 23.8073 84.7369 21.2217ZM99.1802 22.1289H90.9245C91.0606 24.0795 92.3761 25.4176 94.4854 25.4176C95.5967 25.4176 96.8668 25.0547 98.0008 24.4197L98.7266 26.1661C97.3885 26.9599 95.7781 27.3908 94.2586 27.3908C90.7885 27.3908 88.407 25.2588 88.407 21.3125C88.407 17.5475 90.7204 15.0753 93.8503 15.0753C97.139 15.0753 99.1802 17.6382 99.1802 21.4259V22.1289ZM93.8276 17.0939C92.1946 17.0939 91.0833 18.4774 90.9245 20.4733H96.6854C96.5266 18.4774 95.4833 17.0939 93.8276 17.0939ZM103.44 27.1867H100.741V10.7207H103.44V27.1867ZM108.471 27.1867H105.772V10.7207H108.471V27.1867ZM121.417 21.2444C121.417 25.0094 118.991 27.4362 115.793 27.4362C112.549 27.4362 110.168 25.032 110.168 21.2671C110.168 17.5021 112.595 15.0753 115.815 15.0753C119.013 15.0753 121.417 17.4795 121.417 21.2444ZM118.922 21.2671C118.922 18.931 117.63 17.298 115.793 17.298C113.933 17.298 112.663 18.9083 112.663 21.2444C112.663 23.5805 113.955 25.1908 115.815 25.1908C117.63 25.1908 118.922 23.6032 118.922 21.2671Z" fill="white"/>
<path fill-rule="evenodd" clip-rule="evenodd" d="M19.918 0.552473L33.6505 8.48093C34.9264 9.21756 35.7124 10.5789 35.7124 12.0522V27.9091C35.7124 29.3823 34.9264 30.7437 33.6505 31.4803L19.918 39.4088C18.6422 40.1454 17.0702 40.1454 15.7943 39.4088L2.06186 31.4803C0.785975 30.7437 0 29.3823 0 27.9091V12.0522C0 10.5789 0.785975 9.21756 2.06186 8.48093L15.7943 0.552473C17.0702 -0.184158 18.6422 -0.184158 19.918 0.552473ZM17.8562 13.795L12.4993 16.8878V23.0734L17.8562 26.1662L23.2131 23.0734V16.8878L17.8562 13.795Z" fill="white"/>
</g>
<defs>
<clipPath id="clip0_1_533">
<rect width="122" height="40" fill="white"/>
</clipPath>
</defs>
</svg>
