<svg width="200" height="62" viewBox="0 0 200 62" fill="none" xmlns="http://www.w3.org/2000/svg">
<path d="M1 30C1 13.9837 13.9837 1 30 1H170C186.016 1 199 13.9837 199 30V32C199 48.0163 186.016 61 170 61H30C13.9837 61 1 48.0163 1 32V30Z" stroke="#E8E8E8" stroke-width="2"/>
<path d="M48.1099 31.8179H45.2607V30.668H48.1099C48.6616 30.668 49.1084 30.5801 49.4502 30.4043C49.792 30.2285 50.041 29.9844 50.1973 29.6719C50.3584 29.3594 50.439 29.0029 50.439 28.6025C50.439 28.2363 50.3584 27.8921 50.1973 27.5698C50.041 27.2476 49.792 26.9888 49.4502 26.7935C49.1084 26.5933 48.6616 26.4932 48.1099 26.4932H45.5903V36H44.1768V25.3359H48.1099C48.9155 25.3359 49.5967 25.4751 50.1533 25.7534C50.71 26.0317 51.1323 26.4175 51.4204 26.9106C51.7085 27.3989 51.8525 27.958 51.8525 28.5879C51.8525 29.2715 51.7085 29.855 51.4204 30.3384C51.1323 30.8218 50.71 31.1904 50.1533 31.4443C49.5967 31.6934 48.9155 31.8179 48.1099 31.8179ZM54.7896 29.3203V36H53.4346V28.0752H54.7529L54.7896 29.3203ZM57.2651 28.0312L57.2578 29.291C57.1455 29.2666 57.0381 29.252 56.9355 29.2471C56.8379 29.2373 56.7256 29.2324 56.5986 29.2324C56.2861 29.2324 56.0103 29.2812 55.771 29.3789C55.5317 29.4766 55.3291 29.6133 55.1631 29.7891C54.9971 29.9648 54.8652 30.1748 54.7676 30.4189C54.6748 30.6582 54.6138 30.9219 54.5845 31.21L54.2036 31.4297C54.2036 30.9512 54.25 30.502 54.3428 30.082C54.4404 29.6621 54.5894 29.291 54.7896 28.9688C54.9897 28.6416 55.2437 28.3877 55.5513 28.207C55.8638 28.0215 56.2349 27.9287 56.6646 27.9287C56.7622 27.9287 56.8745 27.9409 57.0015 27.9653C57.1284 27.9849 57.2163 28.0068 57.2651 28.0312ZM58.0122 32.1255V31.957C58.0122 31.3857 58.0952 30.856 58.2612 30.3677C58.4272 29.8745 58.6665 29.4473 58.979 29.0859C59.2915 28.7197 59.6699 28.4365 60.1143 28.2363C60.5586 28.0312 61.0566 27.9287 61.6084 27.9287C62.165 27.9287 62.6655 28.0312 63.1099 28.2363C63.5591 28.4365 63.9399 28.7197 64.2524 29.0859C64.5698 29.4473 64.8115 29.8745 64.9775 30.3677C65.1436 30.856 65.2266 31.3857 65.2266 31.957V32.1255C65.2266 32.6968 65.1436 33.2266 64.9775 33.7148C64.8115 34.2031 64.5698 34.6304 64.2524 34.9966C63.9399 35.3579 63.5615 35.6411 63.1172 35.8462C62.6777 36.0464 62.1797 36.1465 61.623 36.1465C61.0664 36.1465 60.5659 36.0464 60.1216 35.8462C59.6772 35.6411 59.2964 35.3579 58.979 34.9966C58.6665 34.6304 58.4272 34.2031 58.2612 33.7148C58.0952 33.2266 58.0122 32.6968 58.0122 32.1255ZM59.3672 31.957V32.1255C59.3672 32.521 59.4136 32.8945 59.5063 33.2461C59.5991 33.5928 59.7383 33.9004 59.9238 34.1689C60.1143 34.4375 60.3511 34.6499 60.6343 34.8062C60.9175 34.9575 61.2471 35.0332 61.623 35.0332C61.9941 35.0332 62.3188 34.9575 62.5972 34.8062C62.8804 34.6499 63.1147 34.4375 63.3003 34.1689C63.4858 33.9004 63.625 33.5928 63.7178 33.2461C63.8154 32.8945 63.8643 32.521 63.8643 32.1255V31.957C63.8643 31.5664 63.8154 31.1978 63.7178 30.8511C63.625 30.4995 63.4834 30.1895 63.293 29.9209C63.1074 29.6475 62.873 29.4326 62.5898 29.2764C62.3115 29.1201 61.9844 29.042 61.6084 29.042C61.2373 29.042 60.9102 29.1201 60.627 29.2764C60.3486 29.4326 60.1143 29.6475 59.9238 29.9209C59.7383 30.1895 59.5991 30.4995 59.5063 30.8511C59.4136 31.1978 59.3672 31.5664 59.3672 31.957ZM71.9209 34.4619V24.75H73.2832V36H72.0381L71.9209 34.4619ZM66.5889 32.1255V31.9717C66.5889 31.3662 66.6621 30.8169 66.8086 30.3237C66.96 29.8257 67.1724 29.3984 67.4458 29.042C67.7241 28.6855 68.0537 28.4121 68.4346 28.2217C68.8203 28.0264 69.25 27.9287 69.7236 27.9287C70.2217 27.9287 70.6562 28.0166 71.0273 28.1924C71.4033 28.3633 71.7207 28.6147 71.9795 28.9468C72.2432 29.2739 72.4507 29.6694 72.6021 30.1333C72.7534 30.5972 72.8584 31.1221 72.917 31.708V32.3818C72.8633 32.9629 72.7583 33.4854 72.6021 33.9492C72.4507 34.4131 72.2432 34.8086 71.9795 35.1357C71.7207 35.4629 71.4033 35.7144 71.0273 35.8901C70.6514 36.061 70.2119 36.1465 69.709 36.1465C69.2451 36.1465 68.8203 36.0464 68.4346 35.8462C68.0537 35.646 67.7241 35.3652 67.4458 35.0039C67.1724 34.6426 66.96 34.2178 66.8086 33.7295C66.6621 33.2363 66.5889 32.7017 66.5889 32.1255ZM67.9512 31.9717V32.1255C67.9512 32.521 67.9902 32.8921 68.0684 33.2388C68.1514 33.5854 68.2783 33.8906 68.4492 34.1543C68.6201 34.418 68.8374 34.6255 69.1011 34.7769C69.3647 34.9233 69.6797 34.9966 70.0459 34.9966C70.4951 34.9966 70.8638 34.9014 71.1519 34.7109C71.4448 34.5205 71.6792 34.269 71.855 33.9565C72.0308 33.644 72.1675 33.3047 72.2651 32.9385V31.1733C72.2065 30.9048 72.1211 30.646 72.0088 30.397C71.9014 30.1431 71.7598 29.9185 71.584 29.7231C71.4131 29.5229 71.2007 29.3643 70.9468 29.2471C70.6978 29.1299 70.4023 29.0713 70.0605 29.0713C69.6895 29.0713 69.3696 29.1494 69.1011 29.3057C68.8374 29.457 68.6201 29.667 68.4492 29.9355C68.2783 30.1992 68.1514 30.5068 68.0684 30.8584C67.9902 31.2051 67.9512 31.5762 67.9512 31.9717ZM80.2412 34.1689V28.0752H81.6035V36H80.3071L80.2412 34.1689ZM80.4976 32.499L81.0615 32.4844C81.0615 33.0117 81.0054 33.5 80.8931 33.9492C80.7856 34.3936 80.6099 34.7793 80.3657 35.1064C80.1216 35.4336 79.8018 35.6899 79.4062 35.8755C79.0107 36.0562 78.5298 36.1465 77.9634 36.1465C77.5776 36.1465 77.2236 36.0903 76.9014 35.978C76.584 35.8657 76.3105 35.6924 76.0811 35.458C75.8516 35.2236 75.6733 34.9185 75.5464 34.5425C75.4243 34.1665 75.3633 33.7148 75.3633 33.1875V28.0752H76.7183V33.2021C76.7183 33.5586 76.7573 33.854 76.8354 34.0884C76.9185 34.3179 77.0283 34.501 77.165 34.6377C77.3066 34.7695 77.4629 34.8623 77.6338 34.916C77.8096 34.9697 77.9902 34.9966 78.1758 34.9966C78.752 34.9966 79.2085 34.8867 79.5454 34.667C79.8823 34.4424 80.124 34.1421 80.2705 33.7661C80.4219 33.3853 80.4976 32.9629 80.4976 32.499ZM86.8403 35.0332C87.1626 35.0332 87.4604 34.9673 87.7339 34.8354C88.0073 34.7036 88.2319 34.5229 88.4077 34.2935C88.5835 34.0591 88.6836 33.793 88.708 33.4951H89.9971C89.9727 33.9639 89.814 34.4009 89.521 34.8062C89.2329 35.2065 88.8545 35.5312 88.3857 35.7803C87.917 36.0244 87.4019 36.1465 86.8403 36.1465C86.2446 36.1465 85.7246 36.0415 85.2803 35.8315C84.8408 35.6216 84.4746 35.3335 84.1816 34.9673C83.8936 34.6011 83.6763 34.1812 83.5298 33.7075C83.3882 33.229 83.3174 32.7236 83.3174 32.1914V31.8838C83.3174 31.3516 83.3882 30.8486 83.5298 30.375C83.6763 29.8965 83.8936 29.4741 84.1816 29.1079C84.4746 28.7417 84.8408 28.4536 85.2803 28.2437C85.7246 28.0337 86.2446 27.9287 86.8403 27.9287C87.4604 27.9287 88.0024 28.0557 88.4663 28.3096C88.9302 28.5586 89.2939 28.9004 89.5576 29.335C89.8262 29.7646 89.9727 30.2529 89.9971 30.7998H88.708C88.6836 30.4727 88.5908 30.1772 88.4297 29.9136C88.2734 29.6499 88.0586 29.4399 87.7852 29.2837C87.5166 29.1226 87.2017 29.042 86.8403 29.042C86.4253 29.042 86.0762 29.125 85.793 29.291C85.5146 29.4521 85.2925 29.6719 85.1265 29.9502C84.9653 30.2236 84.8481 30.5288 84.7749 30.8657C84.7065 31.1978 84.6724 31.5371 84.6724 31.8838V32.1914C84.6724 32.5381 84.7065 32.8799 84.7749 33.2168C84.8433 33.5537 84.958 33.8589 85.1191 34.1323C85.2852 34.4058 85.5073 34.6255 85.7856 34.7915C86.0688 34.9526 86.4204 35.0332 86.8403 35.0332ZM94.8384 28.0752V29.1152H90.5537V28.0752H94.8384ZM92.0039 26.1489H93.3589V34.0371C93.3589 34.3057 93.4004 34.5083 93.4834 34.645C93.5664 34.7817 93.6738 34.8721 93.8057 34.916C93.9375 34.96 94.0791 34.9819 94.2305 34.9819C94.3428 34.9819 94.46 34.9722 94.582 34.9526C94.709 34.9282 94.8042 34.9087 94.8677 34.894L94.875 36C94.7676 36.0342 94.626 36.0659 94.4502 36.0952C94.2793 36.1294 94.0718 36.1465 93.8276 36.1465C93.4956 36.1465 93.1904 36.0806 92.9121 35.9487C92.6338 35.8169 92.4116 35.5972 92.2456 35.2896C92.0845 34.9771 92.0039 34.5571 92.0039 34.0298V26.1489ZM103.239 36H101.013L101.027 34.8501H103.239C104.001 34.8501 104.636 34.6914 105.144 34.374C105.651 34.0518 106.032 33.6025 106.286 33.0264C106.545 32.4453 106.674 31.7666 106.674 30.9902V30.3384C106.674 29.728 106.601 29.186 106.455 28.7124C106.308 28.2339 106.093 27.8311 105.81 27.5039C105.527 27.1719 105.18 26.9204 104.77 26.7495C104.365 26.5786 103.898 26.4932 103.371 26.4932H100.969V25.3359H103.371C104.069 25.3359 104.707 25.4531 105.283 25.6875C105.859 25.917 106.354 26.2515 106.77 26.6909C107.189 27.1255 107.512 27.6528 107.736 28.2729C107.961 28.8882 108.073 29.5815 108.073 30.353V30.9902C108.073 31.7617 107.961 32.4575 107.736 33.0776C107.512 33.6929 107.187 34.2178 106.762 34.6523C106.342 35.0869 105.834 35.4214 105.239 35.6558C104.648 35.8853 103.981 36 103.239 36ZM101.767 25.3359V36H100.354V25.3359H101.767ZM113.281 36.1465C112.729 36.1465 112.229 36.0537 111.779 35.8682C111.335 35.6777 110.952 35.4116 110.629 35.0698C110.312 34.728 110.068 34.3228 109.897 33.854C109.726 33.3853 109.641 32.8726 109.641 32.3159V32.0083C109.641 31.3638 109.736 30.79 109.926 30.2871C110.117 29.7793 110.375 29.3496 110.703 28.998C111.03 28.6465 111.401 28.3804 111.816 28.1997C112.231 28.019 112.661 27.9287 113.105 27.9287C113.671 27.9287 114.16 28.0264 114.57 28.2217C114.985 28.417 115.324 28.6904 115.588 29.042C115.852 29.3887 116.047 29.7988 116.174 30.2725C116.301 30.7412 116.364 31.2539 116.364 31.8105V32.4185H110.446V31.3125H115.009V31.21C114.99 30.8584 114.917 30.5166 114.79 30.1846C114.667 29.8525 114.472 29.5791 114.204 29.3643C113.935 29.1494 113.569 29.042 113.105 29.042C112.797 29.042 112.514 29.1079 112.255 29.2397C111.997 29.3667 111.774 29.5571 111.589 29.811C111.403 30.0649 111.259 30.375 111.157 30.7412C111.054 31.1074 111.003 31.5298 111.003 32.0083V32.3159C111.003 32.6919 111.054 33.0459 111.157 33.3779C111.264 33.7051 111.418 33.9932 111.618 34.2422C111.823 34.4912 112.07 34.6865 112.358 34.8281C112.651 34.9697 112.983 35.0405 113.354 35.0405C113.833 35.0405 114.238 34.9429 114.57 34.7476C114.902 34.5522 115.192 34.291 115.441 33.9639L116.262 34.6157C116.091 34.8745 115.874 35.1211 115.61 35.3555C115.346 35.5898 115.021 35.7803 114.636 35.9268C114.255 36.0732 113.803 36.1465 113.281 36.1465ZM122.561 33.8979C122.561 33.7026 122.517 33.522 122.429 33.356C122.346 33.1851 122.172 33.0312 121.909 32.8945C121.65 32.7529 121.259 32.6309 120.737 32.5283C120.297 32.4355 119.899 32.3257 119.543 32.1987C119.191 32.0718 118.891 31.918 118.642 31.7373C118.398 31.5566 118.21 31.3442 118.078 31.1001C117.946 30.856 117.88 30.5703 117.88 30.2432C117.88 29.9307 117.949 29.6353 118.085 29.3569C118.227 29.0786 118.425 28.832 118.679 28.6172C118.938 28.4023 119.248 28.2339 119.609 28.1118C119.97 27.9897 120.373 27.9287 120.817 27.9287C121.452 27.9287 121.994 28.041 122.443 28.2656C122.893 28.4902 123.237 28.7905 123.476 29.1665C123.715 29.5376 123.835 29.9502 123.835 30.4043H122.48C122.48 30.1846 122.414 29.9722 122.282 29.7671C122.155 29.5571 121.967 29.3838 121.718 29.2471C121.474 29.1104 121.174 29.042 120.817 29.042C120.441 29.042 120.136 29.1006 119.902 29.2178C119.672 29.3301 119.504 29.4741 119.396 29.6499C119.294 29.8257 119.243 30.0112 119.243 30.2065C119.243 30.353 119.267 30.4849 119.316 30.6021C119.37 30.7144 119.462 30.8193 119.594 30.917C119.726 31.0098 119.912 31.0977 120.151 31.1807C120.39 31.2637 120.695 31.3467 121.066 31.4297C121.716 31.5762 122.25 31.752 122.67 31.957C123.09 32.1621 123.403 32.4136 123.608 32.7114C123.813 33.0093 123.916 33.3706 123.916 33.7954C123.916 34.1421 123.842 34.4595 123.696 34.7476C123.554 35.0356 123.347 35.2847 123.073 35.4946C122.805 35.6997 122.482 35.8608 122.106 35.978C121.735 36.0903 121.318 36.1465 120.854 36.1465C120.156 36.1465 119.565 36.022 119.082 35.7729C118.598 35.5239 118.232 35.2017 117.983 34.8062C117.734 34.4106 117.609 33.9932 117.609 33.5537H118.972C118.991 33.9248 119.099 34.2202 119.294 34.4399C119.489 34.6548 119.729 34.8086 120.012 34.9014C120.295 34.9893 120.576 35.0332 120.854 35.0332C121.225 35.0332 121.535 34.9844 121.784 34.8867C122.038 34.7891 122.231 34.6548 122.363 34.4839C122.495 34.313 122.561 34.1177 122.561 33.8979ZM127.167 28.0752V36H125.805V28.0752H127.167ZM125.703 25.9731C125.703 25.7534 125.769 25.5679 125.9 25.4165C126.037 25.2651 126.237 25.1895 126.501 25.1895C126.76 25.1895 126.958 25.2651 127.094 25.4165C127.236 25.5679 127.307 25.7534 127.307 25.9731C127.307 26.1831 127.236 26.3638 127.094 26.5151C126.958 26.6616 126.76 26.7349 126.501 26.7349C126.237 26.7349 126.037 26.6616 125.9 26.5151C125.769 26.3638 125.703 26.1831 125.703 25.9731ZM134.477 28.0752H135.708V35.8315C135.708 36.5298 135.566 37.1255 135.283 37.6187C135 38.1118 134.604 38.4854 134.096 38.7393C133.593 38.998 133.012 39.1274 132.353 39.1274C132.08 39.1274 131.757 39.0835 131.386 38.9956C131.02 38.9126 130.659 38.7686 130.302 38.5635C129.951 38.3633 129.655 38.0923 129.416 37.7505L130.126 36.9448C130.458 37.3452 130.805 37.6235 131.167 37.7798C131.533 37.936 131.894 38.0142 132.25 38.0142C132.68 38.0142 133.051 37.9336 133.364 37.7725C133.676 37.6113 133.918 37.3721 134.089 37.0547C134.265 36.7422 134.353 36.3564 134.353 35.8975V29.8184L134.477 28.0752ZM129.021 32.1255V31.9717C129.021 31.3662 129.091 30.8169 129.233 30.3237C129.379 29.8257 129.587 29.3984 129.855 29.042C130.129 28.6855 130.458 28.4121 130.844 28.2217C131.23 28.0264 131.665 27.9287 132.148 27.9287C132.646 27.9287 133.081 28.0166 133.452 28.1924C133.828 28.3633 134.145 28.6147 134.404 28.9468C134.667 29.2739 134.875 29.6694 135.026 30.1333C135.178 30.5972 135.283 31.1221 135.341 31.708V32.3818C135.288 32.9629 135.183 33.4854 135.026 33.9492C134.875 34.4131 134.667 34.8086 134.404 35.1357C134.145 35.4629 133.828 35.7144 133.452 35.8901C133.076 36.061 132.636 36.1465 132.133 36.1465C131.66 36.1465 131.23 36.0464 130.844 35.8462C130.463 35.646 130.136 35.3652 129.863 35.0039C129.589 34.6426 129.379 34.2178 129.233 33.7295C129.091 33.2363 129.021 32.7017 129.021 32.1255ZM130.375 31.9717V32.1255C130.375 32.521 130.415 32.8921 130.493 33.2388C130.576 33.5854 130.7 33.8906 130.866 34.1543C131.037 34.418 131.254 34.6255 131.518 34.7769C131.782 34.9233 132.097 34.9966 132.463 34.9966C132.912 34.9966 133.283 34.9014 133.576 34.7109C133.869 34.5205 134.101 34.269 134.272 33.9565C134.448 33.644 134.584 33.3047 134.682 32.9385V31.1733C134.628 30.9048 134.545 30.646 134.433 30.397C134.326 30.1431 134.184 29.9185 134.008 29.7231C133.837 29.5229 133.625 29.3643 133.371 29.2471C133.117 29.1299 132.819 29.0713 132.478 29.0713C132.106 29.0713 131.787 29.1494 131.518 29.3057C131.254 29.457 131.037 29.667 130.866 29.9355C130.7 30.1992 130.576 30.5068 130.493 30.8584C130.415 31.2051 130.375 31.5762 130.375 31.9717ZM139.121 29.7671V36H137.766V28.0752H139.047L139.121 29.7671ZM138.798 31.7373L138.234 31.7153C138.239 31.1733 138.32 30.6729 138.476 30.2139C138.632 29.75 138.852 29.3472 139.135 29.0054C139.418 28.6636 139.755 28.3999 140.146 28.2144C140.542 28.0239 140.979 27.9287 141.457 27.9287C141.848 27.9287 142.199 27.9824 142.512 28.0898C142.824 28.1924 143.09 28.3584 143.31 28.5879C143.535 28.8174 143.706 29.1152 143.823 29.4814C143.94 29.8428 143.999 30.2847 143.999 30.8071V36H142.636V30.7925C142.636 30.3774 142.575 30.0454 142.453 29.7964C142.331 29.5425 142.153 29.3594 141.918 29.2471C141.684 29.1299 141.396 29.0713 141.054 29.0713C140.717 29.0713 140.41 29.1421 140.131 29.2837C139.858 29.4253 139.621 29.6206 139.421 29.8696C139.226 30.1187 139.072 30.4043 138.959 30.7266C138.852 31.0439 138.798 31.3809 138.798 31.7373ZM149.345 36.1465C148.793 36.1465 148.293 36.0537 147.844 35.8682C147.399 35.6777 147.016 35.4116 146.694 35.0698C146.376 34.728 146.132 34.3228 145.961 33.854C145.791 33.3853 145.705 32.8726 145.705 32.3159V32.0083C145.705 31.3638 145.8 30.79 145.991 30.2871C146.181 29.7793 146.44 29.3496 146.767 28.998C147.094 28.6465 147.465 28.3804 147.88 28.1997C148.295 28.019 148.725 27.9287 149.169 27.9287C149.736 27.9287 150.224 28.0264 150.634 28.2217C151.049 28.417 151.389 28.6904 151.652 29.042C151.916 29.3887 152.111 29.7988 152.238 30.2725C152.365 30.7412 152.429 31.2539 152.429 31.8105V32.4185H146.511V31.3125H151.074V31.21C151.054 30.8584 150.981 30.5166 150.854 30.1846C150.732 29.8525 150.537 29.5791 150.268 29.3643C150 29.1494 149.633 29.042 149.169 29.042C148.862 29.042 148.579 29.1079 148.32 29.2397C148.061 29.3667 147.839 29.5571 147.653 29.811C147.468 30.0649 147.324 30.375 147.221 30.7412C147.119 31.1074 147.067 31.5298 147.067 32.0083V32.3159C147.067 32.6919 147.119 33.0459 147.221 33.3779C147.329 33.7051 147.482 33.9932 147.683 34.2422C147.888 34.4912 148.134 34.6865 148.422 34.8281C148.715 34.9697 149.047 35.0405 149.418 35.0405C149.897 35.0405 150.302 34.9429 150.634 34.7476C150.966 34.5522 151.257 34.291 151.506 33.9639L152.326 34.6157C152.155 34.8745 151.938 35.1211 151.674 35.3555C151.411 35.5898 151.086 35.7803 150.7 35.9268C150.319 36.0732 149.868 36.1465 149.345 36.1465ZM155.366 29.3203V36H154.011V28.0752H155.329L155.366 29.3203ZM157.841 28.0312L157.834 29.291C157.722 29.2666 157.614 29.252 157.512 29.2471C157.414 29.2373 157.302 29.2324 157.175 29.2324C156.862 29.2324 156.586 29.2812 156.347 29.3789C156.108 29.4766 155.905 29.6133 155.739 29.7891C155.573 29.9648 155.441 30.1748 155.344 30.4189C155.251 30.6582 155.19 30.9219 155.161 31.21L154.78 31.4297C154.78 30.9512 154.826 30.502 154.919 30.082C155.017 29.6621 155.166 29.291 155.366 28.9688C155.566 28.6416 155.82 28.3877 156.127 28.207C156.44 28.0215 156.811 27.9287 157.241 27.9287C157.338 27.9287 157.451 27.9409 157.578 27.9653C157.705 27.9849 157.792 28.0068 157.841 28.0312Z" fill="#0A8BFE"/>
</svg>
