<svg width="155" height="62" viewBox="0 0 155 62" fill="none" xmlns="http://www.w3.org/2000/svg">
<path d="M1 30C1 13.9837 13.9837 1 30 1H170C186.016 1 199 13.9837 199 30V32C199 48.0163 186.016 61 170 61H30C13.9837 61 1 48.0163 1 32V30Z" stroke="#E8E8E8" stroke-width="2"/>
<path d="M45.5977 31.8252V36H44.1914V25.3359H48.1245C49.2915 25.3359 50.2046 25.6338 50.8638 26.2295C51.5278 26.8252 51.8599 27.6138 51.8599 28.5952C51.8599 29.6304 51.5352 30.4287 50.8857 30.9902C50.2412 31.5469 49.3159 31.8252 48.1099 31.8252H45.5977ZM45.5977 30.6753H48.1245C48.8765 30.6753 49.4526 30.4995 49.853 30.1479C50.2534 29.7915 50.4536 29.2788 50.4536 28.6099C50.4536 27.9751 50.2534 27.4673 49.853 27.0864C49.4526 26.7056 48.9033 26.5078 48.2051 26.4932H45.5977V30.6753ZM57.2725 29.291C57.0674 29.2568 56.8452 29.2397 56.606 29.2397C55.7173 29.2397 55.1143 29.6182 54.7969 30.375V36H53.4419V28.0752H54.7603L54.7822 28.9907C55.2266 28.2827 55.8564 27.9287 56.6719 27.9287C56.9355 27.9287 57.1357 27.9629 57.2725 28.0312V29.291ZM58.0195 31.9644C58.0195 31.188 58.1709 30.4897 58.4736 29.8696C58.7812 29.2495 59.2061 28.771 59.748 28.4341C60.2949 28.0972 60.9175 27.9287 61.6157 27.9287C62.6948 27.9287 63.5664 28.3022 64.2305 29.0493C64.8994 29.7964 65.2339 30.79 65.2339 32.0303V32.1255C65.2339 32.897 65.085 33.5903 64.7871 34.2056C64.4941 34.8159 64.0718 35.292 63.52 35.6338C62.9731 35.9756 62.3433 36.1465 61.6304 36.1465C60.5562 36.1465 59.6846 35.7729 59.0156 35.0259C58.3516 34.2788 58.0195 33.29 58.0195 32.0596V31.9644ZM59.3818 32.1255C59.3818 33.0044 59.5845 33.71 59.9897 34.2422C60.3999 34.7744 60.9468 35.0405 61.6304 35.0405C62.3188 35.0405 62.8657 34.772 63.271 34.2349C63.6763 33.6929 63.8789 32.936 63.8789 31.9644C63.8789 31.0952 63.6714 30.3921 63.2563 29.855C62.8462 29.313 62.2993 29.042 61.6157 29.042C60.9468 29.042 60.4072 29.3081 59.9971 29.8403C59.5869 30.3726 59.3818 31.1343 59.3818 32.1255ZM66.6035 31.9717C66.6035 30.7559 66.8916 29.7793 67.4678 29.042C68.0439 28.2998 68.7983 27.9287 69.731 27.9287C70.6587 27.9287 71.3936 28.2461 71.9355 28.8809V24.75H73.2905V36H72.0454L71.9795 35.1504C71.4375 35.8145 70.6831 36.1465 69.7163 36.1465C68.7983 36.1465 68.0488 35.7705 67.4678 35.0186C66.8916 34.2666 66.6035 33.2852 66.6035 32.0742V31.9717ZM67.9585 32.1255C67.9585 33.0239 68.144 33.7271 68.5151 34.2349C68.8862 34.7427 69.3989 34.9966 70.0532 34.9966C70.9126 34.9966 71.54 34.6108 71.9355 33.8394V30.1992C71.5303 29.4521 70.9077 29.0786 70.0679 29.0786C69.4038 29.0786 68.8862 29.335 68.5151 29.8477C68.144 30.3604 67.9585 31.1196 67.9585 32.1255ZM80.2925 35.2163C79.7651 35.8364 78.9912 36.1465 77.9707 36.1465C77.126 36.1465 76.4814 35.9023 76.0371 35.4141C75.5977 34.9209 75.3755 34.1934 75.3706 33.2314V28.0752H76.7256V33.1948C76.7256 34.396 77.2139 34.9966 78.1904 34.9966C79.2256 34.9966 79.9141 34.6108 80.2559 33.8394V28.0752H81.6108V36H80.3218L80.2925 35.2163ZM86.855 35.0405C87.3384 35.0405 87.7607 34.894 88.1221 34.6011C88.4834 34.3081 88.6836 33.9419 88.7227 33.5024H90.0044C89.98 33.9565 89.8237 34.3887 89.5356 34.7988C89.2476 35.209 88.8618 35.5361 88.3784 35.7803C87.8999 36.0244 87.3921 36.1465 86.855 36.1465C85.7759 36.1465 84.9165 35.7876 84.2769 35.0698C83.6421 34.3472 83.3247 33.3608 83.3247 32.1108V31.8838C83.3247 31.1123 83.4663 30.4263 83.7495 29.8257C84.0327 29.2251 84.438 28.7588 84.9653 28.4268C85.4976 28.0947 86.125 27.9287 86.8477 27.9287C87.7363 27.9287 88.4736 28.1948 89.0596 28.7271C89.6504 29.2593 89.9653 29.9502 90.0044 30.7998H88.7227C88.6836 30.2871 88.4883 29.8672 88.1367 29.54C87.79 29.208 87.3604 29.042 86.8477 29.042C86.1592 29.042 85.6245 29.291 85.2437 29.7891C84.8677 30.2822 84.6797 30.9976 84.6797 31.9351V32.1914C84.6797 33.1045 84.8677 33.8076 85.2437 34.3008C85.6196 34.7939 86.1567 35.0405 86.855 35.0405ZM93.3662 26.1562V28.0752H94.8457V29.1226H93.3662V34.0371C93.3662 34.3545 93.4321 34.5938 93.564 34.7549C93.6958 34.9111 93.9204 34.9893 94.2378 34.9893C94.394 34.9893 94.6089 34.96 94.8823 34.9014V36C94.5259 36.0977 94.1792 36.1465 93.8423 36.1465C93.2368 36.1465 92.7803 35.9634 92.4727 35.5972C92.165 35.231 92.0112 34.7109 92.0112 34.0371V29.1226H90.5684V28.0752H92.0112V26.1562H93.3662ZM100.368 36V25.3359H103.378C104.306 25.3359 105.126 25.541 105.839 25.9512C106.552 26.3613 107.102 26.9448 107.487 27.7017C107.878 28.4585 108.076 29.3276 108.081 30.3091V30.9902C108.081 31.9961 107.885 32.8774 107.495 33.6343C107.109 34.3911 106.555 34.9722 105.832 35.3774C105.114 35.7827 104.277 35.9902 103.32 36H100.368ZM101.774 26.4932V34.8501H103.254C104.338 34.8501 105.18 34.5132 105.781 33.8394C106.386 33.1655 106.689 32.2061 106.689 30.9609V30.3384C106.689 29.1274 106.403 28.1875 105.832 27.5186C105.266 26.8447 104.46 26.5029 103.415 26.4932H101.774ZM113.288 36.1465C112.214 36.1465 111.34 35.7949 110.666 35.0918C109.992 34.3838 109.655 33.439 109.655 32.2573V32.0083C109.655 31.2222 109.804 30.5215 110.102 29.9062C110.405 29.2861 110.825 28.8027 111.362 28.4561C111.904 28.1045 112.49 27.9287 113.12 27.9287C114.15 27.9287 114.951 28.2681 115.522 28.9468C116.093 29.6255 116.379 30.5972 116.379 31.8618V32.4258H111.01C111.03 33.207 111.257 33.8394 111.691 34.3228C112.131 34.8013 112.688 35.0405 113.361 35.0405C113.84 35.0405 114.245 34.9429 114.577 34.7476C114.909 34.5522 115.2 34.2935 115.449 33.9712L116.276 34.6157C115.612 35.6362 114.616 36.1465 113.288 36.1465ZM113.12 29.042C112.573 29.042 112.114 29.2422 111.743 29.6426C111.372 30.0381 111.142 30.5947 111.054 31.3125H115.024V31.21C114.985 30.5215 114.799 29.9893 114.467 29.6133C114.135 29.2324 113.686 29.042 113.12 29.042ZM122.568 33.8979C122.568 33.5317 122.429 33.2485 122.15 33.0483C121.877 32.8433 121.396 32.6675 120.708 32.521C120.024 32.3745 119.479 32.1987 119.074 31.9937C118.674 31.7886 118.376 31.5444 118.181 31.2612C117.99 30.978 117.895 30.6411 117.895 30.2505C117.895 29.6011 118.168 29.0518 118.715 28.6025C119.267 28.1533 119.97 27.9287 120.825 27.9287C121.723 27.9287 122.451 28.1606 123.007 28.6245C123.569 29.0884 123.85 29.6816 123.85 30.4043H122.487C122.487 30.0332 122.329 29.7134 122.011 29.4448C121.699 29.1763 121.303 29.042 120.825 29.042C120.332 29.042 119.946 29.1494 119.667 29.3643C119.389 29.5791 119.25 29.8599 119.25 30.2065C119.25 30.5337 119.379 30.7803 119.638 30.9463C119.897 31.1123 120.363 31.271 121.037 31.4224C121.716 31.5737 122.265 31.7544 122.685 31.9644C123.105 32.1743 123.415 32.4282 123.615 32.7261C123.82 33.019 123.923 33.3779 123.923 33.8027C123.923 34.5107 123.64 35.0796 123.073 35.5093C122.507 35.9341 121.772 36.1465 120.869 36.1465C120.234 36.1465 119.672 36.0342 119.184 35.8096C118.696 35.585 118.312 35.2725 118.034 34.8721C117.761 34.4668 117.624 34.0298 117.624 33.561H118.979C119.003 34.0151 119.184 34.3765 119.521 34.645C119.863 34.9087 120.312 35.0405 120.869 35.0405C121.381 35.0405 121.792 34.938 122.099 34.7329C122.412 34.5229 122.568 34.2446 122.568 33.8979ZM127.16 36H125.805V28.0752H127.16V36ZM125.695 25.9731C125.695 25.7534 125.761 25.5679 125.893 25.4165C126.03 25.2651 126.23 25.1895 126.494 25.1895C126.757 25.1895 126.958 25.2651 127.094 25.4165C127.231 25.5679 127.299 25.7534 127.299 25.9731C127.299 26.1929 127.231 26.376 127.094 26.5225C126.958 26.6689 126.757 26.7422 126.494 26.7422C126.23 26.7422 126.03 26.6689 125.893 26.5225C125.761 26.376 125.695 26.1929 125.695 25.9731ZM129.013 31.9717C129.013 30.7363 129.299 29.7549 129.87 29.0273C130.441 28.2949 131.198 27.9287 132.141 27.9287C133.107 27.9287 133.862 28.2705 134.404 28.9541L134.47 28.0752H135.708V35.8096C135.708 36.835 135.402 37.6431 134.792 38.2339C134.187 38.8247 133.371 39.1201 132.346 39.1201C131.774 39.1201 131.215 38.998 130.668 38.7539C130.122 38.5098 129.704 38.1753 129.416 37.7505L130.119 36.9375C130.7 37.6553 131.411 38.0142 132.25 38.0142C132.91 38.0142 133.422 37.8286 133.789 37.4575C134.16 37.0864 134.345 36.564 134.345 35.8901V35.209C133.803 35.834 133.063 36.1465 132.126 36.1465C131.198 36.1465 130.446 35.7729 129.87 35.0259C129.299 34.2788 129.013 33.2607 129.013 31.9717ZM130.375 32.1255C130.375 33.019 130.559 33.7222 130.925 34.2349C131.291 34.7427 131.804 34.9966 132.463 34.9966C133.317 34.9966 133.945 34.6084 134.345 33.832V30.2139C133.93 29.457 133.308 29.0786 132.478 29.0786C131.818 29.0786 131.303 29.335 130.932 29.8477C130.561 30.3604 130.375 31.1196 130.375 32.1255ZM139.04 28.0752L139.084 29.0713C139.689 28.3096 140.48 27.9287 141.457 27.9287C143.132 27.9287 143.977 28.8735 143.991 30.7632V36H142.636V30.7559C142.631 30.1846 142.5 29.7622 142.241 29.4888C141.987 29.2153 141.589 29.0786 141.047 29.0786C140.607 29.0786 140.222 29.1958 139.89 29.4302C139.558 29.6646 139.299 29.9722 139.113 30.353V36H137.758V28.0752H139.04ZM149.323 36.1465C148.249 36.1465 147.375 35.7949 146.701 35.0918C146.027 34.3838 145.69 33.439 145.69 32.2573V32.0083C145.69 31.2222 145.839 30.5215 146.137 29.9062C146.44 29.2861 146.86 28.8027 147.397 28.4561C147.939 28.1045 148.525 27.9287 149.155 27.9287C150.185 27.9287 150.986 28.2681 151.557 28.9468C152.128 29.6255 152.414 30.5972 152.414 31.8618V32.4258H147.045C147.065 33.207 147.292 33.8394 147.727 34.3228C148.166 34.8013 148.723 35.0405 149.396 35.0405C149.875 35.0405 150.28 34.9429 150.612 34.7476C150.944 34.5522 151.235 34.2935 151.484 33.9712L152.312 34.6157C151.647 35.6362 150.651 36.1465 149.323 36.1465ZM149.155 29.042C148.608 29.042 148.149 29.2422 147.778 29.6426C147.407 30.0381 147.177 30.5947 147.089 31.3125H151.059V31.21C151.02 30.5215 150.834 29.9893 150.502 29.6133C150.17 29.2324 149.721 29.042 149.155 29.042ZM157.819 29.291C157.614 29.2568 157.392 29.2397 157.153 29.2397C156.264 29.2397 155.661 29.6182 155.344 30.375V36H153.989V28.0752H155.307L155.329 28.9907C155.773 28.2827 156.403 27.9287 157.219 27.9287C157.482 27.9287 157.683 27.9629 157.819 28.0312V29.291Z" fill="#0A8BFE"/>
</svg>
