<svg width="200" height="62" viewBox="0 0 200 62" fill="none" xmlns="http://www.w3.org/2000/svg">
<path d="M1 30C1 13.9837 13.9837 1 30 1H170C186.016 1 199 13.9837 199 30V32C199 48.0163 186.016 61 170 61H30C13.9837 61 1 48.0163 1 32V30Z" stroke="#E8E8E8" stroke-width="2"/>
<path d="M50.1001 31.8179H47.251V30.668H50.1001C50.6519 30.668 51.0986 30.5801 51.4404 30.4043C51.7822 30.2285 52.0312 29.9844 52.1875 29.6719C52.3486 29.3594 52.4292 29.0029 52.4292 28.6025C52.4292 28.2363 52.3486 27.8921 52.1875 27.5698C52.0312 27.2476 51.7822 26.9888 51.4404 26.7935C51.0986 26.5933 50.6519 26.4932 50.1001 26.4932H47.5806V36H46.167V25.3359H50.1001C50.9058 25.3359 51.5869 25.4751 52.1436 25.7534C52.7002 26.0317 53.1226 26.4175 53.4106 26.9106C53.6987 27.3989 53.8428 27.958 53.8428 28.5879C53.8428 29.2715 53.6987 29.855 53.4106 30.3384C53.1226 30.8218 52.7002 31.1904 52.1436 31.4443C51.5869 31.6934 50.9058 31.8179 50.1001 31.8179ZM56.7798 29.3203V36H55.4248V28.0752H56.7432L56.7798 29.3203ZM59.2554 28.0312L59.248 29.291C59.1357 29.2666 59.0283 29.252 58.9258 29.2471C58.8281 29.2373 58.7158 29.2324 58.5889 29.2324C58.2764 29.2324 58.0005 29.2812 57.7612 29.3789C57.522 29.4766 57.3193 29.6133 57.1533 29.7891C56.9873 29.9648 56.8555 30.1748 56.7578 30.4189C56.665 30.6582 56.604 30.9219 56.5747 31.21L56.1938 31.4297C56.1938 30.9512 56.2402 30.502 56.333 30.082C56.4307 29.6621 56.5796 29.291 56.7798 28.9688C56.98 28.6416 57.2339 28.3877 57.5415 28.207C57.854 28.0215 58.2251 27.9287 58.6548 27.9287C58.7524 27.9287 58.8647 27.9409 58.9917 27.9653C59.1187 27.9849 59.2065 28.0068 59.2554 28.0312ZM60.0024 32.1255V31.957C60.0024 31.3857 60.0854 30.856 60.2515 30.3677C60.4175 29.8745 60.6567 29.4473 60.9692 29.0859C61.2817 28.7197 61.6602 28.4365 62.1045 28.2363C62.5488 28.0312 63.0469 27.9287 63.5986 27.9287C64.1553 27.9287 64.6558 28.0312 65.1001 28.2363C65.5493 28.4365 65.9302 28.7197 66.2427 29.0859C66.5601 29.4473 66.8018 29.8745 66.9678 30.3677C67.1338 30.856 67.2168 31.3857 67.2168 31.957V32.1255C67.2168 32.6968 67.1338 33.2266 66.9678 33.7148C66.8018 34.2031 66.5601 34.6304 66.2427 34.9966C65.9302 35.3579 65.5518 35.6411 65.1074 35.8462C64.668 36.0464 64.1699 36.1465 63.6133 36.1465C63.0566 36.1465 62.5562 36.0464 62.1118 35.8462C61.6675 35.6411 61.2866 35.3579 60.9692 34.9966C60.6567 34.6304 60.4175 34.2031 60.2515 33.7148C60.0854 33.2266 60.0024 32.6968 60.0024 32.1255ZM61.3574 31.957V32.1255C61.3574 32.521 61.4038 32.8945 61.4966 33.2461C61.5894 33.5928 61.7285 33.9004 61.9141 34.1689C62.1045 34.4375 62.3413 34.6499 62.6245 34.8062C62.9077 34.9575 63.2373 35.0332 63.6133 35.0332C63.9844 35.0332 64.3091 34.9575 64.5874 34.8062C64.8706 34.6499 65.105 34.4375 65.2905 34.1689C65.4761 33.9004 65.6152 33.5928 65.708 33.2461C65.8057 32.8945 65.8545 32.521 65.8545 32.1255V31.957C65.8545 31.5664 65.8057 31.1978 65.708 30.8511C65.6152 30.4995 65.4736 30.1895 65.2832 29.9209C65.0977 29.6475 64.8633 29.4326 64.5801 29.2764C64.3018 29.1201 63.9746 29.042 63.5986 29.042C63.2275 29.042 62.9004 29.1201 62.6172 29.2764C62.3389 29.4326 62.1045 29.6475 61.9141 29.9209C61.7285 30.1895 61.5894 30.4995 61.4966 30.8511C61.4038 31.1978 61.3574 31.5664 61.3574 31.957ZM68.9526 28.0752H70.3149V36.9448C70.3149 37.4282 70.2368 37.8384 70.0806 38.1753C69.9292 38.5122 69.6997 38.7661 69.3921 38.937C69.0894 39.1128 68.7061 39.2007 68.2422 39.2007C68.1201 39.2007 67.9785 39.1885 67.8174 39.1641C67.6514 39.1396 67.5122 39.1104 67.3999 39.0762L67.4072 37.9849C67.5 38.0044 67.605 38.019 67.7222 38.0288C67.8394 38.0435 67.9419 38.0508 68.0298 38.0508C68.23 38.0508 68.3984 38.0142 68.5352 37.9409C68.6719 37.8677 68.7744 37.7505 68.8428 37.5894C68.916 37.4282 68.9526 37.2134 68.9526 36.9448V28.0752ZM68.8135 25.9731C68.8135 25.7534 68.8818 25.5679 69.0186 25.4165C69.1553 25.2651 69.353 25.1895 69.6118 25.1895C69.8755 25.1895 70.0757 25.2651 70.2124 25.4165C70.3491 25.5679 70.4175 25.7534 70.4175 25.9731C70.4175 26.1831 70.3491 26.3638 70.2124 26.5151C70.0757 26.6616 69.8755 26.7349 69.6118 26.7349C69.353 26.7349 69.1553 26.6616 69.0186 26.5151C68.8818 26.3638 68.8135 26.1831 68.8135 25.9731ZM75.7935 36.1465C75.2417 36.1465 74.7412 36.0537 74.292 35.8682C73.8477 35.6777 73.4644 35.4116 73.1421 35.0698C72.8247 34.728 72.5806 34.3228 72.4097 33.854C72.2388 33.3853 72.1533 32.8726 72.1533 32.3159V32.0083C72.1533 31.3638 72.2485 30.79 72.439 30.2871C72.6294 29.7793 72.8882 29.3496 73.2153 28.998C73.5425 28.6465 73.9136 28.3804 74.3286 28.1997C74.7437 28.019 75.1733 27.9287 75.6177 27.9287C76.1841 27.9287 76.6724 28.0264 77.0825 28.2217C77.4976 28.417 77.8369 28.6904 78.1006 29.042C78.3643 29.3887 78.5596 29.7988 78.6865 30.2725C78.8135 30.7412 78.877 31.2539 78.877 31.8105V32.4185H72.959V31.3125H77.522V31.21C77.5024 30.8584 77.4292 30.5166 77.3022 30.1846C77.1802 29.8525 76.9849 29.5791 76.7163 29.3643C76.4478 29.1494 76.0815 29.042 75.6177 29.042C75.3101 29.042 75.0269 29.1079 74.7681 29.2397C74.5093 29.3667 74.2871 29.5571 74.1016 29.811C73.916 30.0649 73.772 30.375 73.6694 30.7412C73.5669 31.1074 73.5156 31.5298 73.5156 32.0083V32.3159C73.5156 32.6919 73.5669 33.0459 73.6694 33.3779C73.7769 33.7051 73.9307 33.9932 74.1309 34.2422C74.3359 34.4912 74.5825 34.6865 74.8706 34.8281C75.1636 34.9697 75.4956 35.0405 75.8667 35.0405C76.3452 35.0405 76.7505 34.9429 77.0825 34.7476C77.4146 34.5522 77.7051 34.291 77.9541 33.9639L78.7744 34.6157C78.6035 34.8745 78.3862 35.1211 78.1226 35.3555C77.8589 35.5898 77.5342 35.7803 77.1484 35.9268C76.7676 36.0732 76.3159 36.1465 75.7935 36.1465ZM83.6304 35.0332C83.9526 35.0332 84.2505 34.9673 84.5239 34.8354C84.7974 34.7036 85.022 34.5229 85.1978 34.2935C85.3735 34.0591 85.4736 33.793 85.498 33.4951H86.7871C86.7627 33.9639 86.604 34.4009 86.311 34.8062C86.0229 35.2065 85.6445 35.5312 85.1758 35.7803C84.707 36.0244 84.1919 36.1465 83.6304 36.1465C83.0347 36.1465 82.5146 36.0415 82.0703 35.8315C81.6309 35.6216 81.2646 35.3335 80.9717 34.9673C80.6836 34.6011 80.4663 34.1812 80.3198 33.7075C80.1782 33.229 80.1074 32.7236 80.1074 32.1914V31.8838C80.1074 31.3516 80.1782 30.8486 80.3198 30.375C80.4663 29.8965 80.6836 29.4741 80.9717 29.1079C81.2646 28.7417 81.6309 28.4536 82.0703 28.2437C82.5146 28.0337 83.0347 27.9287 83.6304 27.9287C84.2505 27.9287 84.7925 28.0557 85.2563 28.3096C85.7202 28.5586 86.084 28.9004 86.3477 29.335C86.6162 29.7646 86.7627 30.2529 86.7871 30.7998H85.498C85.4736 30.4727 85.3809 30.1772 85.2197 29.9136C85.0635 29.6499 84.8486 29.4399 84.5752 29.2837C84.3066 29.1226 83.9917 29.042 83.6304 29.042C83.2153 29.042 82.8662 29.125 82.583 29.291C82.3047 29.4521 82.0825 29.6719 81.9165 29.9502C81.7554 30.2236 81.6382 30.5288 81.5649 30.8657C81.4966 31.1978 81.4624 31.5371 81.4624 31.8838V32.1914C81.4624 32.5381 81.4966 32.8799 81.5649 33.2168C81.6333 33.5537 81.748 33.8589 81.9092 34.1323C82.0752 34.4058 82.2974 34.6255 82.5757 34.7915C82.8589 34.9526 83.2104 35.0332 83.6304 35.0332ZM91.6284 28.0752V29.1152H87.3438V28.0752H91.6284ZM88.7939 26.1489H90.1489V34.0371C90.1489 34.3057 90.1904 34.5083 90.2734 34.645C90.3564 34.7817 90.4639 34.8721 90.5957 34.916C90.7275 34.96 90.8691 34.9819 91.0205 34.9819C91.1328 34.9819 91.25 34.9722 91.3721 34.9526C91.499 34.9282 91.5942 34.9087 91.6577 34.894L91.665 36C91.5576 36.0342 91.416 36.0659 91.2402 36.0952C91.0693 36.1294 90.8618 36.1465 90.6177 36.1465C90.2856 36.1465 89.9805 36.0806 89.7021 35.9487C89.4238 35.8169 89.2017 35.5972 89.0356 35.2896C88.8745 34.9771 88.7939 34.5571 88.7939 34.0298V26.1489ZM97.5903 25.3359H98.96L102.454 34.0298L105.94 25.3359H107.317L102.981 36H101.912L97.5903 25.3359ZM97.1436 25.3359H98.3521L98.5498 31.8398V36H97.1436V25.3359ZM106.548 25.3359H107.756V36H106.35V31.8398L106.548 25.3359ZM114.707 34.645V30.5654C114.707 30.2529 114.644 29.9819 114.517 29.7524C114.395 29.5181 114.209 29.3374 113.96 29.2104C113.711 29.0835 113.403 29.02 113.037 29.02C112.695 29.02 112.395 29.0786 112.136 29.1958C111.882 29.313 111.682 29.4668 111.536 29.6572C111.394 29.8477 111.323 30.0527 111.323 30.2725H109.968C109.968 29.9893 110.042 29.7085 110.188 29.4302C110.334 29.1519 110.544 28.9004 110.818 28.6758C111.096 28.4463 111.428 28.2656 111.814 28.1338C112.205 27.9971 112.639 27.9287 113.118 27.9287C113.694 27.9287 114.202 28.0264 114.641 28.2217C115.085 28.417 115.432 28.7124 115.681 29.1079C115.935 29.4985 116.062 29.9893 116.062 30.5801V34.2715C116.062 34.5352 116.084 34.8159 116.128 35.1138C116.177 35.4116 116.248 35.668 116.34 35.8828V36H114.927C114.858 35.8438 114.805 35.6362 114.766 35.3774C114.727 35.1138 114.707 34.8696 114.707 34.645ZM114.941 31.1953L114.956 32.1475H113.586C113.201 32.1475 112.856 32.1792 112.554 32.2427C112.251 32.3013 111.997 32.3916 111.792 32.5137C111.587 32.6357 111.431 32.7896 111.323 32.9751C111.216 33.1558 111.162 33.3682 111.162 33.6123C111.162 33.8613 111.218 34.0884 111.331 34.2935C111.443 34.4985 111.611 34.6621 111.836 34.7842C112.065 34.9014 112.346 34.96 112.678 34.96C113.093 34.96 113.459 34.8721 113.777 34.6963C114.094 34.5205 114.346 34.3057 114.531 34.0518C114.722 33.7979 114.824 33.5513 114.839 33.312L115.417 33.9639C115.383 34.1689 115.291 34.396 115.139 34.645C114.988 34.894 114.785 35.1333 114.531 35.3628C114.282 35.5874 113.984 35.7754 113.638 35.9268C113.296 36.0732 112.91 36.1465 112.48 36.1465C111.943 36.1465 111.472 36.0415 111.067 35.8315C110.667 35.6216 110.354 35.3408 110.129 34.9893C109.91 34.6328 109.8 34.2349 109.8 33.7954C109.8 33.3706 109.883 32.9971 110.049 32.6748C110.215 32.3477 110.454 32.0767 110.767 31.8618C111.079 31.6421 111.455 31.4761 111.895 31.3638C112.334 31.2515 112.825 31.1953 113.367 31.1953H114.941ZM119.548 29.7671V36H118.193V28.0752H119.475L119.548 29.7671ZM119.226 31.7373L118.662 31.7153C118.667 31.1733 118.748 30.6729 118.904 30.2139C119.06 29.75 119.28 29.3472 119.563 29.0054C119.846 28.6636 120.183 28.3999 120.574 28.2144C120.969 28.0239 121.406 27.9287 121.885 27.9287C122.275 27.9287 122.627 27.9824 122.939 28.0898C123.252 28.1924 123.518 28.3584 123.738 28.5879C123.962 28.8174 124.133 29.1152 124.25 29.4814C124.368 29.8428 124.426 30.2847 124.426 30.8071V36H123.064V30.7925C123.064 30.3774 123.003 30.0454 122.881 29.7964C122.759 29.5425 122.581 29.3594 122.346 29.2471C122.112 29.1299 121.824 29.0713 121.482 29.0713C121.145 29.0713 120.837 29.1421 120.559 29.2837C120.286 29.4253 120.049 29.6206 119.849 29.8696C119.653 30.1187 119.5 30.4043 119.387 30.7266C119.28 31.0439 119.226 31.3809 119.226 31.7373ZM131.157 34.645V30.5654C131.157 30.2529 131.094 29.9819 130.967 29.7524C130.845 29.5181 130.659 29.3374 130.41 29.2104C130.161 29.0835 129.854 29.02 129.487 29.02C129.146 29.02 128.845 29.0786 128.586 29.1958C128.333 29.313 128.132 29.4668 127.986 29.6572C127.844 29.8477 127.773 30.0527 127.773 30.2725H126.418C126.418 29.9893 126.492 29.7085 126.638 29.4302C126.785 29.1519 126.995 28.9004 127.268 28.6758C127.546 28.4463 127.878 28.2656 128.264 28.1338C128.655 27.9971 129.089 27.9287 129.568 27.9287C130.144 27.9287 130.652 28.0264 131.091 28.2217C131.536 28.417 131.882 28.7124 132.131 29.1079C132.385 29.4985 132.512 29.9893 132.512 30.5801V34.2715C132.512 34.5352 132.534 34.8159 132.578 35.1138C132.627 35.4116 132.698 35.668 132.791 35.8828V36H131.377C131.309 35.8438 131.255 35.6362 131.216 35.3774C131.177 35.1138 131.157 34.8696 131.157 34.645ZM131.392 31.1953L131.406 32.1475H130.037C129.651 32.1475 129.307 32.1792 129.004 32.2427C128.701 32.3013 128.447 32.3916 128.242 32.5137C128.037 32.6357 127.881 32.7896 127.773 32.9751C127.666 33.1558 127.612 33.3682 127.612 33.6123C127.612 33.8613 127.668 34.0884 127.781 34.2935C127.893 34.4985 128.062 34.6621 128.286 34.7842C128.516 34.9014 128.796 34.96 129.128 34.96C129.543 34.96 129.91 34.8721 130.227 34.6963C130.544 34.5205 130.796 34.3057 130.981 34.0518C131.172 33.7979 131.274 33.5513 131.289 33.312L131.868 33.9639C131.833 34.1689 131.741 34.396 131.589 34.645C131.438 34.894 131.235 35.1333 130.981 35.3628C130.732 35.5874 130.435 35.7754 130.088 35.9268C129.746 36.0732 129.36 36.1465 128.931 36.1465C128.394 36.1465 127.922 36.0415 127.517 35.8315C127.117 35.6216 126.804 35.3408 126.58 34.9893C126.36 34.6328 126.25 34.2349 126.25 33.7954C126.25 33.3706 126.333 32.9971 126.499 32.6748C126.665 32.3477 126.904 32.0767 127.217 31.8618C127.529 31.6421 127.905 31.4761 128.345 31.3638C128.784 31.2515 129.275 31.1953 129.817 31.1953H131.392ZM139.778 28.0752H141.008V35.8315C141.008 36.5298 140.867 37.1255 140.583 37.6187C140.3 38.1118 139.905 38.4854 139.397 38.7393C138.894 38.998 138.313 39.1274 137.654 39.1274C137.38 39.1274 137.058 39.0835 136.687 38.9956C136.321 38.9126 135.959 38.7686 135.603 38.5635C135.251 38.3633 134.956 38.0923 134.717 37.7505L135.427 36.9448C135.759 37.3452 136.106 37.6235 136.467 37.7798C136.833 37.936 137.195 38.0142 137.551 38.0142C137.981 38.0142 138.352 37.9336 138.665 37.7725C138.977 37.6113 139.219 37.3721 139.39 37.0547C139.565 36.7422 139.653 36.3564 139.653 35.8975V29.8184L139.778 28.0752ZM134.321 32.1255V31.9717C134.321 31.3662 134.392 30.8169 134.534 30.3237C134.68 29.8257 134.888 29.3984 135.156 29.042C135.43 28.6855 135.759 28.4121 136.145 28.2217C136.531 28.0264 136.965 27.9287 137.449 27.9287C137.947 27.9287 138.381 28.0166 138.752 28.1924C139.128 28.3633 139.446 28.6147 139.705 28.9468C139.968 29.2739 140.176 29.6694 140.327 30.1333C140.479 30.5972 140.583 31.1221 140.642 31.708V32.3818C140.588 32.9629 140.483 33.4854 140.327 33.9492C140.176 34.4131 139.968 34.8086 139.705 35.1357C139.446 35.4629 139.128 35.7144 138.752 35.8901C138.376 36.061 137.937 36.1465 137.434 36.1465C136.96 36.1465 136.531 36.0464 136.145 35.8462C135.764 35.646 135.437 35.3652 135.164 35.0039C134.89 34.6426 134.68 34.2178 134.534 33.7295C134.392 33.2363 134.321 32.7017 134.321 32.1255ZM135.676 31.9717V32.1255C135.676 32.521 135.715 32.8921 135.793 33.2388C135.876 33.5854 136.001 33.8906 136.167 34.1543C136.338 34.418 136.555 34.6255 136.819 34.7769C137.083 34.9233 137.397 34.9966 137.764 34.9966C138.213 34.9966 138.584 34.9014 138.877 34.7109C139.17 34.5205 139.402 34.269 139.573 33.9565C139.749 33.644 139.885 33.3047 139.983 32.9385V31.1733C139.929 30.9048 139.846 30.646 139.734 30.397C139.626 30.1431 139.485 29.9185 139.309 29.7231C139.138 29.5229 138.926 29.3643 138.672 29.2471C138.418 29.1299 138.12 29.0713 137.778 29.0713C137.407 29.0713 137.087 29.1494 136.819 29.3057C136.555 29.457 136.338 29.667 136.167 29.9355C136.001 30.1992 135.876 30.5068 135.793 30.8584C135.715 31.2051 135.676 31.5762 135.676 31.9717ZM146.355 36.1465C145.803 36.1465 145.303 36.0537 144.854 35.8682C144.409 35.6777 144.026 35.4116 143.704 35.0698C143.386 34.728 143.142 34.3228 142.971 33.854C142.8 33.3853 142.715 32.8726 142.715 32.3159V32.0083C142.715 31.3638 142.81 30.79 143 30.2871C143.191 29.7793 143.45 29.3496 143.777 28.998C144.104 28.6465 144.475 28.3804 144.89 28.1997C145.305 28.019 145.735 27.9287 146.179 27.9287C146.746 27.9287 147.234 28.0264 147.644 28.2217C148.059 28.417 148.398 28.6904 148.662 29.042C148.926 29.3887 149.121 29.7988 149.248 30.2725C149.375 30.7412 149.438 31.2539 149.438 31.8105V32.4185H143.521V31.3125H148.083V31.21C148.064 30.8584 147.991 30.5166 147.864 30.1846C147.742 29.8525 147.546 29.5791 147.278 29.3643C147.009 29.1494 146.643 29.042 146.179 29.042C145.872 29.042 145.588 29.1079 145.33 29.2397C145.071 29.3667 144.849 29.5571 144.663 29.811C144.478 30.0649 144.333 30.375 144.231 30.7412C144.128 31.1074 144.077 31.5298 144.077 32.0083V32.3159C144.077 32.6919 144.128 33.0459 144.231 33.3779C144.338 33.7051 144.492 33.9932 144.692 34.2422C144.897 34.4912 145.144 34.6865 145.432 34.8281C145.725 34.9697 146.057 35.0405 146.428 35.0405C146.907 35.0405 147.312 34.9429 147.644 34.7476C147.976 34.5522 148.267 34.291 148.516 33.9639L149.336 34.6157C149.165 34.8745 148.948 35.1211 148.684 35.3555C148.42 35.5898 148.096 35.7803 147.71 35.9268C147.329 36.0732 146.877 36.1465 146.355 36.1465ZM152.375 29.3203V36H151.021V28.0752H152.339L152.375 29.3203ZM154.851 28.0312L154.844 29.291C154.731 29.2666 154.624 29.252 154.521 29.2471C154.424 29.2373 154.312 29.2324 154.185 29.2324C153.872 29.2324 153.596 29.2812 153.357 29.3789C153.118 29.4766 152.915 29.6133 152.749 29.7891C152.583 29.9648 152.451 30.1748 152.354 30.4189C152.261 30.6582 152.2 30.9219 152.17 31.21L151.79 31.4297C151.79 30.9512 151.836 30.502 151.929 30.082C152.026 29.6621 152.175 29.291 152.375 28.9688C152.576 28.6416 152.83 28.3877 153.137 28.207C153.45 28.0215 153.821 27.9287 154.25 27.9287C154.348 27.9287 154.46 27.9409 154.587 27.9653C154.714 27.9849 154.802 28.0068 154.851 28.0312Z" fill="#0A8BFE"/>
</svg>
